<svg width="1009" height="966" viewBox="0 0 1009 966" fill="none" xmlns="http://www.w3.org/2000/svg">
<ellipse cx="496" cy="84.5" rx="23" ry="22.5" fill="#B9F0FC"/>
<ellipse cx="496" cy="208.5" rx="23" ry="22.5" fill="#B9F0FC"/>
<ellipse cx="776" cy="84.5" rx="23" ry="22.5" fill="#B9F0FC"/>
<ellipse cx="776" cy="332.5" rx="23" ry="22.5" fill="#B9F0FC"/>
<ellipse cx="776" cy="208.5" rx="23" ry="22.5" fill="#B9F0FC"/>
<ellipse cx="776" cy="456.5" rx="23" ry="22.5" fill="#B9F0FC"/>
<ellipse cx="636" cy="84.5" rx="23" ry="22.5" fill="#B9F0FC"/>
<ellipse cx="636" cy="332.5" rx="23" ry="22.5" fill="#B9F0FC"/>
<ellipse cx="636" cy="208.5" rx="23" ry="22.5" fill="#B9F0FC"/>
<ellipse cx="916" cy="84.5" rx="23" ry="22.5" fill="#B9F0FC"/>
<ellipse cx="916" cy="332.5" rx="23" ry="22.5" fill="#B9F0FC"/>
<ellipse cx="916" cy="208.5" rx="23" ry="22.5" fill="#B9F0FC"/>
<ellipse cx="916" cy="456.5" rx="23" ry="22.5" fill="#B9F0FC"/>
<ellipse cx="566" cy="84.5" rx="23" ry="22.5" fill="#B9F0FC"/>
<ellipse cx="566" cy="332.5" rx="23" ry="22.5" fill="#B9F0FC"/>
<ellipse cx="566" cy="208.5" rx="23" ry="22.5" fill="#B9F0FC"/>
<ellipse cx="846" cy="84.5" rx="23" ry="22.5" fill="#B9F0FC"/>
<ellipse cx="846" cy="332.5" rx="23" ry="22.5" fill="#B9F0FC"/>
<ellipse cx="846" cy="208.5" rx="23" ry="22.5" fill="#B9F0FC"/>
<ellipse cx="846" cy="456.5" rx="23" ry="22.5" fill="#B9F0FC"/>
<ellipse cx="706" cy="84.5" rx="23" ry="22.5" fill="#B9F0FC"/>
<ellipse cx="706" cy="332.5" rx="23" ry="22.5" fill="#B9F0FC"/>
<ellipse cx="706" cy="208.5" rx="23" ry="22.5" fill="#B9F0FC"/>
<ellipse cx="706" cy="456.5" rx="23" ry="22.5" fill="#B9F0FC"/>
<ellipse cx="986" cy="84.5" rx="23" ry="22.5" fill="#B9F0FC"/>
<ellipse cx="986" cy="332.5" rx="23" ry="22.5" fill="#B9F0FC"/>
<ellipse cx="986" cy="208.5" rx="23" ry="22.5" fill="#B9F0FC"/>
<ellipse cx="986" cy="456.5" rx="23" ry="22.5" fill="#B9F0FC"/>
<ellipse cx="566" cy="22.5" rx="23" ry="22.5" fill="#B9F0FC"/>
<ellipse cx="566" cy="270.5" rx="23" ry="22.5" fill="#B9F0FC"/>
<ellipse cx="566" cy="146.5" rx="23" ry="22.5" fill="#B9F0FC"/>
<ellipse cx="846" cy="22.5" rx="23" ry="22.5" fill="#B9F0FC"/>
<ellipse cx="846" cy="270.5" rx="23" ry="22.5" fill="#B9F0FC"/>
<ellipse cx="846" cy="146.5" rx="23" ry="22.5" fill="#B9F0FC"/>
<ellipse cx="846" cy="394.5" rx="23" ry="22.5" fill="#B9F0FC"/>
<ellipse cx="706" cy="22.5" rx="23" ry="22.5" fill="#B9F0FC"/>
<ellipse cx="706" cy="270.5" rx="23" ry="22.5" fill="#B9F0FC"/>
<ellipse cx="706" cy="146.5" rx="23" ry="22.5" fill="#B9F0FC"/>
<ellipse cx="706" cy="394.5" rx="23" ry="22.5" fill="#B9F0FC"/>
<ellipse cx="986" cy="22.5" rx="23" ry="22.5" fill="#B9F0FC"/>
<ellipse cx="986" cy="270.5" rx="23" ry="22.5" fill="#B9F0FC"/>
<ellipse cx="986" cy="146.5" rx="23" ry="22.5" fill="#B9F0FC"/>
<ellipse cx="986" cy="394.5" rx="23" ry="22.5" fill="#B9F0FC"/>
<ellipse cx="496" cy="22.5" rx="23" ry="22.5" fill="#B9F0FC"/>
<ellipse cx="496" cy="270.5" rx="23" ry="22.5" fill="#B9F0FC"/>
<ellipse cx="496" cy="146.5" rx="23" ry="22.5" fill="#B9F0FC"/>
<ellipse cx="776" cy="22.5" rx="23" ry="22.5" fill="#B9F0FC"/>
<ellipse cx="776" cy="270.5" rx="23" ry="22.5" fill="#B9F0FC"/>
<ellipse cx="776" cy="146.5" rx="23" ry="22.5" fill="#B9F0FC"/>
<ellipse cx="776" cy="394.5" rx="23" ry="22.5" fill="#B9F0FC"/>
<ellipse cx="636" cy="22.5" rx="23" ry="22.5" fill="#B9F0FC"/>
<ellipse cx="636" cy="270.5" rx="23" ry="22.5" fill="#B9F0FC"/>
<ellipse cx="636" cy="146.5" rx="23" ry="22.5" fill="#B9F0FC"/>
<ellipse cx="636" cy="394.5" rx="23" ry="22.5" fill="#B9F0FC"/>
<ellipse cx="916" cy="22.5" rx="23" ry="22.5" fill="#B9F0FC"/>
<ellipse cx="916" cy="270.5" rx="23" ry="22.5" fill="#B9F0FC"/>
<ellipse cx="916" cy="146.5" rx="23" ry="22.5" fill="#B9F0FC"/>
<ellipse cx="916" cy="394.5" rx="23" ry="22.5" fill="#B9F0FC"/>
<path d="M611.5 462C611.5 532.952 553.313 590.5 481.5 590.5C409.687 590.5 351.5 532.952 351.5 462C351.5 391.048 409.687 333.5 481.5 333.5C553.313 333.5 611.5 391.048 611.5 462Z" fill="white" stroke="#B9F0FC" stroke-width="3"/>
<path d="M435.281 452.25H440.094C442.385 452.25 444.083 451.677 445.188 450.531C446.292 449.385 446.844 447.865 446.844 445.969C446.844 444.135 446.292 442.708 445.188 441.688C444.104 440.667 442.604 440.156 440.688 440.156C438.958 440.156 437.51 440.635 436.344 441.594C435.177 442.531 434.594 443.76 434.594 445.281H425.562C425.562 442.906 426.198 440.781 427.469 438.906C428.76 437.01 430.552 435.531 432.844 434.469C435.156 433.406 437.698 432.875 440.469 432.875C445.281 432.875 449.052 434.031 451.781 436.344C454.51 438.635 455.875 441.802 455.875 445.844C455.875 447.927 455.24 449.844 453.969 451.594C452.698 453.344 451.031 454.688 448.969 455.625C451.531 456.542 453.438 457.917 454.688 459.75C455.958 461.583 456.594 463.75 456.594 466.25C456.594 470.292 455.115 473.531 452.156 475.969C449.219 478.406 445.323 479.625 440.469 479.625C435.927 479.625 432.208 478.427 429.312 476.031C426.438 473.635 425 470.469 425 466.531H434.031C434.031 468.24 434.667 469.635 435.938 470.719C437.229 471.802 438.812 472.344 440.688 472.344C442.833 472.344 444.51 471.781 445.719 470.656C446.948 469.51 447.562 468 447.562 466.125C447.562 461.583 445.062 459.312 440.062 459.312H435.281V452.25ZM493.469 460.188C493.469 466.479 492.167 471.292 489.562 474.625C486.958 477.958 483.146 479.625 478.125 479.625C473.167 479.625 469.375 477.99 466.75 474.719C464.125 471.448 462.781 466.76 462.719 460.656V452.281C462.719 445.927 464.031 441.104 466.656 437.812C469.302 434.521 473.104 432.875 478.062 432.875C483.021 432.875 486.812 434.51 489.438 437.781C492.062 441.031 493.406 445.708 493.469 451.812V460.188ZM484.438 451C484.438 447.229 483.917 444.49 482.875 442.781C481.854 441.052 480.25 440.188 478.062 440.188C475.938 440.188 474.365 441.01 473.344 442.656C472.344 444.281 471.812 446.833 471.75 450.312V461.375C471.75 465.083 472.25 467.844 473.25 469.656C474.271 471.448 475.896 472.344 478.125 472.344C480.333 472.344 481.927 471.479 482.906 469.75C483.885 468.021 484.396 465.375 484.438 461.812V451ZM530.219 460.188C530.219 466.479 528.917 471.292 526.312 474.625C523.708 477.958 519.896 479.625 514.875 479.625C509.917 479.625 506.125 477.99 503.5 474.719C500.875 471.448 499.531 466.76 499.469 460.656V452.281C499.469 445.927 500.781 441.104 503.406 437.812C506.052 434.521 509.854 432.875 514.812 432.875C519.771 432.875 523.562 434.51 526.188 437.781C528.812 441.031 530.156 445.708 530.219 451.812V460.188ZM521.188 451C521.188 447.229 520.667 444.49 519.625 442.781C518.604 441.052 517 440.188 514.812 440.188C512.688 440.188 511.115 441.01 510.094 442.656C509.094 444.281 508.562 446.833 508.5 450.312V461.375C508.5 465.083 509 467.844 510 469.656C511.021 471.448 512.646 472.344 514.875 472.344C517.083 472.344 518.677 471.479 519.656 469.75C520.635 468.021 521.146 465.375 521.188 461.812V451ZM554.938 453.531H566.219V461.688H554.938V474.438H546.344V461.688H535.031V453.531H546.344V441.312H554.938V453.531Z" fill="#86D3E4"/>
<path d="M437.918 501.316C437.785 503.152 437.105 504.598 435.879 505.652C434.66 506.707 433.051 507.234 431.051 507.234C428.863 507.234 427.141 506.5 425.883 505.031C424.633 503.555 424.008 501.531 424.008 498.961V497.918C424.008 496.277 424.297 494.832 424.875 493.582C425.453 492.332 426.277 491.375 427.348 490.711C428.426 490.039 429.676 489.703 431.098 489.703C433.066 489.703 434.652 490.23 435.855 491.285C437.059 492.34 437.754 493.82 437.941 495.727H434.426C434.34 494.625 434.031 493.828 433.5 493.336C432.977 492.836 432.176 492.586 431.098 492.586C429.926 492.586 429.047 493.008 428.461 493.852C427.883 494.688 427.586 495.988 427.57 497.754V499.043C427.57 500.887 427.848 502.234 428.402 503.086C428.965 503.938 429.848 504.363 431.051 504.363C432.137 504.363 432.945 504.117 433.477 503.625C434.016 503.125 434.324 502.355 434.402 501.316H437.918ZM439.477 500.543C439.477 499.285 439.719 498.164 440.203 497.18C440.688 496.195 441.383 495.434 442.289 494.895C443.203 494.355 444.262 494.086 445.465 494.086C447.176 494.086 448.57 494.609 449.648 495.656C450.734 496.703 451.34 498.125 451.465 499.922L451.488 500.789C451.488 502.734 450.945 504.297 449.859 505.477C448.773 506.648 447.316 507.234 445.488 507.234C443.66 507.234 442.199 506.648 441.105 505.477C440.02 504.305 439.477 502.711 439.477 500.695V500.543ZM442.863 500.789C442.863 501.992 443.09 502.914 443.543 503.555C443.996 504.188 444.645 504.504 445.488 504.504C446.309 504.504 446.949 504.191 447.41 503.566C447.871 502.934 448.102 501.926 448.102 500.543C448.102 499.363 447.871 498.449 447.41 497.801C446.949 497.152 446.301 496.828 445.465 496.828C444.637 496.828 443.996 497.152 443.543 497.801C443.09 498.441 442.863 499.438 442.863 500.789ZM456.75 494.32L456.855 495.738C457.754 494.637 458.969 494.086 460.5 494.086C462.133 494.086 463.254 494.73 463.863 496.02C464.754 494.73 466.023 494.086 467.672 494.086C469.047 494.086 470.07 494.488 470.742 495.293C471.414 496.09 471.75 497.293 471.75 498.902V507H468.352V498.914C468.352 498.195 468.211 497.672 467.93 497.344C467.648 497.008 467.152 496.84 466.441 496.84C465.426 496.84 464.723 497.324 464.332 498.293L464.344 507H460.957V498.926C460.957 498.191 460.812 497.66 460.523 497.332C460.234 497.004 459.742 496.84 459.047 496.84C458.086 496.84 457.391 497.238 456.961 498.035V507H453.574V494.32H456.75ZM485.777 500.777C485.777 502.73 485.332 504.297 484.441 505.477C483.559 506.648 482.363 507.234 480.855 507.234C479.574 507.234 478.539 506.789 477.75 505.898V511.875H474.363V494.32H477.504L477.621 495.562C478.441 494.578 479.512 494.086 480.832 494.086C482.395 494.086 483.609 494.664 484.477 495.82C485.344 496.977 485.777 498.57 485.777 500.602V500.777ZM482.391 500.531C482.391 499.352 482.18 498.441 481.758 497.801C481.344 497.16 480.738 496.84 479.941 496.84C478.879 496.84 478.148 497.246 477.75 498.059V503.25C478.164 504.086 478.902 504.504 479.965 504.504C481.582 504.504 482.391 503.18 482.391 500.531ZM495.234 507C495.078 506.695 494.965 506.316 494.895 505.863C494.074 506.777 493.008 507.234 491.695 507.234C490.453 507.234 489.422 506.875 488.602 506.156C487.789 505.438 487.383 504.531 487.383 503.438C487.383 502.094 487.879 501.062 488.871 500.344C489.871 499.625 491.312 499.262 493.195 499.254H494.754V498.527C494.754 497.941 494.602 497.473 494.297 497.121C494 496.77 493.527 496.594 492.879 496.594C492.309 496.594 491.859 496.73 491.531 497.004C491.211 497.277 491.051 497.652 491.051 498.129H487.664C487.664 497.395 487.891 496.715 488.344 496.09C488.797 495.465 489.438 494.977 490.266 494.625C491.094 494.266 492.023 494.086 493.055 494.086C494.617 494.086 495.855 494.48 496.77 495.27C497.691 496.051 498.152 497.152 498.152 498.574V504.07C498.16 505.273 498.328 506.184 498.656 506.801V507H495.234ZM492.434 504.645C492.934 504.645 493.395 504.535 493.816 504.316C494.238 504.09 494.551 503.789 494.754 503.414V501.234H493.488C491.793 501.234 490.891 501.82 490.781 502.992L490.77 503.191C490.77 503.613 490.918 503.961 491.215 504.234C491.512 504.508 491.918 504.645 492.434 504.645ZM503.871 494.32L503.977 495.785C504.883 494.652 506.098 494.086 507.621 494.086C508.965 494.086 509.965 494.48 510.621 495.27C511.277 496.059 511.613 497.238 511.629 498.809V507H508.242V498.891C508.242 498.172 508.086 497.652 507.773 497.332C507.461 497.004 506.941 496.84 506.215 496.84C505.262 496.84 504.547 497.246 504.07 498.059V507H500.684V494.32H503.871ZM517.781 507H514.383V494.32H517.781V507ZM514.184 491.039C514.184 490.531 514.352 490.113 514.688 489.785C515.031 489.457 515.496 489.293 516.082 489.293C516.66 489.293 517.121 489.457 517.465 489.785C517.809 490.113 517.98 490.531 517.98 491.039C517.98 491.555 517.805 491.977 517.453 492.305C517.109 492.633 516.652 492.797 516.082 492.797C515.512 492.797 515.051 492.633 514.699 492.305C514.355 491.977 514.184 491.555 514.184 491.039ZM526.418 507.234C524.559 507.234 523.043 506.664 521.871 505.523C520.707 504.383 520.125 502.863 520.125 500.965V500.637C520.125 499.363 520.371 498.227 520.863 497.227C521.355 496.219 522.051 495.445 522.949 494.906C523.855 494.359 524.887 494.086 526.043 494.086C527.777 494.086 529.141 494.633 530.133 495.727C531.133 496.82 531.633 498.371 531.633 500.379V501.762H523.559C523.668 502.59 523.996 503.254 524.543 503.754C525.098 504.254 525.797 504.504 526.641 504.504C527.945 504.504 528.965 504.031 529.699 503.086L531.363 504.949C530.855 505.668 530.168 506.23 529.301 506.637C528.434 507.035 527.473 507.234 526.418 507.234ZM526.031 496.828C525.359 496.828 524.812 497.055 524.391 497.508C523.977 497.961 523.711 498.609 523.594 499.453H528.305V499.184C528.289 498.434 528.086 497.855 527.695 497.449C527.305 497.035 526.75 496.828 526.031 496.828ZM540.434 503.496C540.434 503.082 540.227 502.758 539.812 502.523C539.406 502.281 538.75 502.066 537.844 501.879C534.828 501.246 533.32 499.965 533.32 498.035C533.32 496.91 533.785 495.973 534.715 495.223C535.652 494.465 536.875 494.086 538.383 494.086C539.992 494.086 541.277 494.465 542.238 495.223C543.207 495.98 543.691 496.965 543.691 498.176H540.305C540.305 497.691 540.148 497.293 539.836 496.98C539.523 496.66 539.035 496.5 538.371 496.5C537.801 496.5 537.359 496.629 537.047 496.887C536.734 497.145 536.578 497.473 536.578 497.871C536.578 498.246 536.754 498.551 537.105 498.785C537.465 499.012 538.066 499.211 538.91 499.383C539.754 499.547 540.465 499.734 541.043 499.945C542.832 500.602 543.727 501.738 543.727 503.355C543.727 504.512 543.23 505.449 542.238 506.168C541.246 506.879 539.965 507.234 538.395 507.234C537.332 507.234 536.387 507.047 535.559 506.672C534.738 506.289 534.094 505.77 533.625 505.113C533.156 504.449 532.922 503.734 532.922 502.969H536.133C536.164 503.57 536.387 504.031 536.801 504.352C537.215 504.672 537.77 504.832 538.465 504.832C539.113 504.832 539.602 504.711 539.93 504.469C540.266 504.219 540.434 503.895 540.434 503.496Z" fill="black"/>
<path d="M408.5 445.5C408.5 549.154 317.796 633.5 205.5 633.5C93.2044 633.5 2.5 549.154 2.5 445.5C2.5 341.846 93.2044 257.5 205.5 257.5C317.796 257.5 408.5 341.846 408.5 445.5Z" fill="white" stroke="#B9F0FC" stroke-width="5"/>
<path d="M155.773 457H149V430.891L140.914 433.398V427.891L155.047 422.828H155.773V457ZM189.852 442.891C189.852 447.609 188.875 451.219 186.922 453.719C184.969 456.219 182.109 457.469 178.344 457.469C174.625 457.469 171.781 456.242 169.812 453.789C167.844 451.336 166.836 447.82 166.789 443.242V436.961C166.789 432.195 167.773 428.578 169.742 426.109C171.727 423.641 174.578 422.406 178.297 422.406C182.016 422.406 184.859 423.633 186.828 426.086C188.797 428.523 189.805 432.031 189.852 436.609V442.891ZM183.078 436C183.078 433.172 182.688 431.117 181.906 429.836C181.141 428.539 179.938 427.891 178.297 427.891C176.703 427.891 175.523 428.508 174.758 429.742C174.008 430.961 173.609 432.875 173.562 435.484V443.781C173.562 446.562 173.938 448.633 174.688 449.992C175.453 451.336 176.672 452.008 178.344 452.008C180 452.008 181.195 451.359 181.93 450.062C182.664 448.766 183.047 446.781 183.078 444.109V436ZM217.414 442.891C217.414 447.609 216.438 451.219 214.484 453.719C212.531 456.219 209.672 457.469 205.906 457.469C202.188 457.469 199.344 456.242 197.375 453.789C195.406 451.336 194.398 447.82 194.352 443.242V436.961C194.352 432.195 195.336 428.578 197.305 426.109C199.289 423.641 202.141 422.406 205.859 422.406C209.578 422.406 212.422 423.633 214.391 426.086C216.359 428.523 217.367 432.031 217.414 436.609V442.891ZM210.641 436C210.641 433.172 210.25 431.117 209.469 429.836C208.703 428.539 207.5 427.891 205.859 427.891C204.266 427.891 203.086 428.508 202.32 429.742C201.57 430.961 201.172 432.875 201.125 435.484V443.781C201.125 446.562 201.5 448.633 202.25 449.992C203.016 451.336 204.234 452.008 205.906 452.008C207.562 452.008 208.758 451.359 209.492 450.062C210.227 448.766 210.609 446.781 210.641 444.109V436ZM244.977 442.891C244.977 447.609 244 451.219 242.047 453.719C240.094 456.219 237.234 457.469 233.469 457.469C229.75 457.469 226.906 456.242 224.938 453.789C222.969 451.336 221.961 447.82 221.914 443.242V436.961C221.914 432.195 222.898 428.578 224.867 426.109C226.852 423.641 229.703 422.406 233.422 422.406C237.141 422.406 239.984 423.633 241.953 426.086C243.922 428.523 244.93 432.031 244.977 436.609V442.891ZM238.203 436C238.203 433.172 237.812 431.117 237.031 429.836C236.266 428.539 235.062 427.891 233.422 427.891C231.828 427.891 230.648 428.508 229.883 429.742C229.133 430.961 228.734 432.875 228.688 435.484V443.781C228.688 446.562 229.062 448.633 229.812 449.992C230.578 451.336 231.797 452.008 233.469 452.008C235.125 452.008 236.32 451.359 237.055 450.062C237.789 448.766 238.172 446.781 238.203 444.109V436ZM272.539 442.891C272.539 447.609 271.562 451.219 269.609 453.719C267.656 456.219 264.797 457.469 261.031 457.469C257.312 457.469 254.469 456.242 252.5 453.789C250.531 451.336 249.523 447.82 249.477 443.242V436.961C249.477 432.195 250.461 428.578 252.43 426.109C254.414 423.641 257.266 422.406 260.984 422.406C264.703 422.406 267.547 423.633 269.516 426.086C271.484 428.523 272.492 432.031 272.539 436.609V442.891ZM265.766 436C265.766 433.172 265.375 431.117 264.594 429.836C263.828 428.539 262.625 427.891 260.984 427.891C259.391 427.891 258.211 428.508 257.445 429.742C256.695 430.961 256.297 432.875 256.25 435.484V443.781C256.25 446.562 256.625 448.633 257.375 449.992C258.141 451.336 259.359 452.008 261.031 452.008C262.688 452.008 263.883 451.359 264.617 450.062C265.352 448.766 265.734 446.781 265.766 444.109V436ZM291.078 437.898H299.539V444.016H291.078V453.578H284.633V444.016H276.148V437.898H284.633V428.734H291.078V437.898Z" fill="#86D3E4"/>
<path d="M158.955 492.408C158.955 491.283 158.557 490.416 157.76 489.807C156.975 489.197 155.551 488.582 153.488 487.961C151.426 487.34 149.785 486.648 148.566 485.887C146.234 484.422 145.068 482.512 145.068 480.156C145.068 478.094 145.906 476.395 147.582 475.059C149.27 473.723 151.455 473.055 154.139 473.055C155.92 473.055 157.508 473.383 158.902 474.039C160.297 474.695 161.393 475.633 162.189 476.852C162.986 478.059 163.385 479.4 163.385 480.877H158.955C158.955 479.541 158.533 478.498 157.689 477.748C156.857 476.986 155.662 476.605 154.104 476.605C152.65 476.605 151.52 476.916 150.711 477.537C149.914 478.158 149.516 479.025 149.516 480.139C149.516 481.076 149.949 481.861 150.816 482.494C151.684 483.115 153.113 483.725 155.105 484.322C157.098 484.908 158.697 485.582 159.904 486.344C161.111 487.094 161.996 487.961 162.559 488.945C163.121 489.918 163.402 491.061 163.402 492.373C163.402 494.506 162.582 496.205 160.941 497.471C159.312 498.725 157.098 499.352 154.297 499.352C152.445 499.352 150.74 499.012 149.182 498.332C147.635 497.641 146.428 496.691 145.561 495.484C144.705 494.277 144.277 492.871 144.277 491.266H148.725C148.725 492.719 149.205 493.844 150.166 494.641C151.127 495.438 152.504 495.836 154.297 495.836C155.844 495.836 157.004 495.525 157.777 494.904C158.562 494.271 158.955 493.439 158.955 492.408ZM178.256 499C178.068 498.637 177.904 498.045 177.764 497.225C176.404 498.643 174.74 499.352 172.771 499.352C170.861 499.352 169.303 498.807 168.096 497.717C166.889 496.627 166.285 495.279 166.285 493.674C166.285 491.646 167.035 490.094 168.535 489.016C170.047 487.926 172.203 487.381 175.004 487.381H177.623V486.133C177.623 485.148 177.348 484.363 176.797 483.777C176.246 483.18 175.408 482.881 174.283 482.881C173.311 482.881 172.514 483.127 171.893 483.619C171.271 484.1 170.961 484.715 170.961 485.465H166.689C166.689 484.422 167.035 483.449 167.727 482.547C168.418 481.633 169.355 480.918 170.539 480.402C171.734 479.887 173.064 479.629 174.529 479.629C176.756 479.629 178.531 480.191 179.855 481.316C181.18 482.43 181.859 484 181.895 486.027V494.605C181.895 496.316 182.135 497.682 182.615 498.701V499H178.256ZM173.562 495.924C174.406 495.924 175.197 495.719 175.936 495.309C176.686 494.898 177.248 494.348 177.623 493.656V490.07H175.32C173.738 490.07 172.549 490.346 171.752 490.896C170.955 491.447 170.557 492.227 170.557 493.234C170.557 494.055 170.826 494.711 171.365 495.203C171.916 495.684 172.648 495.924 173.562 495.924ZM191.721 475.357V479.98H195.078V483.145H191.721V493.762C191.721 494.488 191.861 495.016 192.143 495.344C192.436 495.66 192.951 495.818 193.689 495.818C194.182 495.818 194.68 495.76 195.184 495.643V498.947C194.211 499.217 193.273 499.352 192.371 499.352C189.09 499.352 187.449 497.541 187.449 493.92V483.145H184.32V479.98H187.449V475.357H191.721ZM202.9 499H198.629V479.98H202.9V499ZM198.365 475.041C198.365 474.385 198.57 473.84 198.98 473.406C199.402 472.973 200 472.756 200.773 472.756C201.547 472.756 202.145 472.973 202.566 473.406C202.988 473.84 203.199 474.385 203.199 475.041C203.199 475.686 202.988 476.225 202.566 476.658C202.145 477.08 201.547 477.291 200.773 477.291C200 477.291 199.402 477.08 198.98 476.658C198.57 476.225 198.365 475.686 198.365 475.041ZM218.229 493.832C218.229 493.07 217.912 492.49 217.279 492.092C216.658 491.693 215.621 491.342 214.168 491.037C212.715 490.732 211.502 490.346 210.529 489.877C208.396 488.846 207.33 487.352 207.33 485.395C207.33 483.754 208.021 482.383 209.404 481.281C210.787 480.18 212.545 479.629 214.678 479.629C216.951 479.629 218.785 480.191 220.18 481.316C221.586 482.441 222.289 483.9 222.289 485.693H218.018C218.018 484.873 217.713 484.193 217.104 483.654C216.494 483.104 215.686 482.828 214.678 482.828C213.74 482.828 212.973 483.045 212.375 483.479C211.789 483.912 211.496 484.492 211.496 485.219C211.496 485.875 211.771 486.385 212.322 486.748C212.873 487.111 213.986 487.48 215.662 487.855C217.338 488.219 218.65 488.658 219.6 489.174C220.561 489.678 221.27 490.287 221.727 491.002C222.195 491.717 222.43 492.584 222.43 493.604C222.43 495.314 221.721 496.703 220.303 497.77C218.885 498.824 217.027 499.352 214.73 499.352C213.172 499.352 211.783 499.07 210.564 498.508C209.346 497.945 208.396 497.172 207.717 496.188C207.037 495.203 206.697 494.143 206.697 493.006H210.846C210.904 494.014 211.285 494.793 211.988 495.344C212.691 495.883 213.623 496.152 214.783 496.152C215.908 496.152 216.764 495.941 217.35 495.52C217.936 495.086 218.229 494.523 218.229 493.832ZM227.299 499V483.145H224.398V479.98H227.299V478.68C227.311 477.191 227.627 475.914 228.248 474.848C228.869 473.781 229.748 472.979 230.885 472.439C232.021 471.9 233.387 471.631 234.98 471.631C235.918 471.631 236.814 471.73 237.67 471.93C238.537 472.129 239.434 472.381 240.359 472.686L239.709 476.219C238.092 475.656 236.615 475.375 235.279 475.375C233.979 475.375 233.035 475.662 232.449 476.236C231.863 476.799 231.57 477.648 231.57 478.785V479.98H235.314V483.145H231.57V499H227.299ZM242.381 499H238.109V479.98H242.381V499ZM255.494 499.352C252.787 499.352 250.59 498.502 248.902 496.803C247.227 495.092 246.389 492.818 246.389 489.982V489.455C246.389 487.557 246.752 485.863 247.479 484.375C248.217 482.875 249.248 481.709 250.572 480.877C251.896 480.045 253.373 479.629 255.002 479.629C257.592 479.629 259.59 480.455 260.996 482.107C262.414 483.76 263.123 486.098 263.123 489.121V490.844H250.695C250.824 492.414 251.346 493.656 252.26 494.57C253.186 495.484 254.346 495.941 255.74 495.941C257.697 495.941 259.291 495.15 260.521 493.568L262.824 495.766C262.062 496.902 261.043 497.787 259.766 498.42C258.5 499.041 257.076 499.352 255.494 499.352ZM254.984 483.057C253.812 483.057 252.863 483.467 252.137 484.287C251.422 485.107 250.965 486.25 250.766 487.715H258.904V487.398C258.811 485.969 258.43 484.891 257.762 484.164C257.094 483.426 256.168 483.057 254.984 483.057ZM265.654 489.35C265.654 486.42 266.334 484.07 267.693 482.301C269.053 480.52 270.875 479.629 273.16 479.629C275.176 479.629 276.805 480.332 278.047 481.738V472H282.318V499H278.451L278.24 497.031C276.963 498.578 275.258 499.352 273.125 499.352C270.898 499.352 269.094 498.455 267.711 496.662C266.34 494.869 265.654 492.432 265.654 489.35ZM269.926 489.719C269.926 491.652 270.295 493.164 271.033 494.254C271.783 495.332 272.844 495.871 274.215 495.871C275.961 495.871 277.238 495.092 278.047 493.533V485.412C277.262 483.889 275.996 483.127 274.25 483.127C272.867 483.127 271.801 483.678 271.051 484.779C270.301 485.869 269.926 487.516 269.926 489.719ZM159.131 532.668C158.873 535.398 157.865 537.531 156.107 539.066C154.35 540.59 152.012 541.352 149.094 541.352C147.055 541.352 145.256 540.871 143.697 539.91C142.15 538.938 140.955 537.561 140.111 535.779C139.268 533.998 138.828 531.93 138.793 529.574V527.184C138.793 524.77 139.221 522.643 140.076 520.803C140.932 518.963 142.156 517.545 143.75 516.549C145.355 515.553 147.207 515.055 149.305 515.055C152.129 515.055 154.402 515.822 156.125 517.357C157.848 518.893 158.85 521.061 159.131 523.861H154.701C154.49 522.021 153.951 520.697 153.084 519.889C152.229 519.068 150.969 518.658 149.305 518.658C147.371 518.658 145.883 519.367 144.84 520.785C143.809 522.191 143.281 524.26 143.258 526.99V529.258C143.258 532.023 143.75 534.133 144.734 535.586C145.73 537.039 147.184 537.766 149.094 537.766C150.84 537.766 152.152 537.373 153.031 536.588C153.91 535.803 154.467 534.496 154.701 532.668H159.131ZM167.252 541H162.98V514H167.252V541ZM176.463 541H172.191V521.98H176.463V541ZM171.928 517.041C171.928 516.385 172.133 515.84 172.543 515.406C172.965 514.973 173.562 514.756 174.336 514.756C175.109 514.756 175.707 514.973 176.129 515.406C176.551 515.84 176.762 516.385 176.762 517.041C176.762 517.686 176.551 518.225 176.129 518.658C175.707 519.08 175.109 519.291 174.336 519.291C173.562 519.291 172.965 519.08 172.543 518.658C172.133 518.225 171.928 517.686 171.928 517.041ZM189.506 541.352C186.799 541.352 184.602 540.502 182.914 538.803C181.238 537.092 180.4 534.818 180.4 531.982V531.455C180.4 529.557 180.764 527.863 181.49 526.375C182.229 524.875 183.26 523.709 184.584 522.877C185.908 522.045 187.385 521.629 189.014 521.629C191.604 521.629 193.602 522.455 195.008 524.107C196.426 525.76 197.135 528.098 197.135 531.121V532.844H184.707C184.836 534.414 185.357 535.656 186.271 536.57C187.197 537.484 188.357 537.941 189.752 537.941C191.709 537.941 193.303 537.15 194.533 535.568L196.836 537.766C196.074 538.902 195.055 539.787 193.777 540.42C192.512 541.041 191.088 541.352 189.506 541.352ZM188.996 525.057C187.824 525.057 186.875 525.467 186.148 526.287C185.434 527.107 184.977 528.25 184.777 529.715H192.916V529.398C192.822 527.969 192.441 526.891 191.773 526.164C191.105 525.426 190.18 525.057 188.996 525.057ZM204.43 521.98L204.553 524.178C205.959 522.479 207.805 521.629 210.09 521.629C214.051 521.629 216.066 523.896 216.137 528.432V541H211.865V528.678C211.865 527.471 211.602 526.58 211.074 526.006C210.559 525.42 209.709 525.127 208.525 525.127C206.803 525.127 205.52 525.906 204.676 527.465V541H200.404V521.98H204.43ZM225.857 517.357V521.98H229.215V525.145H225.857V535.762C225.857 536.488 225.998 537.016 226.279 537.344C226.572 537.66 227.088 537.818 227.826 537.818C228.318 537.818 228.816 537.76 229.32 537.643V540.947C228.348 541.217 227.41 541.352 226.508 541.352C223.227 541.352 221.586 539.541 221.586 535.92V525.145H218.457V521.98H221.586V517.357H225.857ZM243.154 535.832C243.154 535.07 242.838 534.49 242.205 534.092C241.584 533.693 240.547 533.342 239.094 533.037C237.641 532.732 236.428 532.346 235.455 531.877C233.322 530.846 232.256 529.352 232.256 527.395C232.256 525.754 232.947 524.383 234.33 523.281C235.713 522.18 237.471 521.629 239.604 521.629C241.877 521.629 243.711 522.191 245.105 523.316C246.512 524.441 247.215 525.9 247.215 527.693H242.943C242.943 526.873 242.639 526.193 242.029 525.654C241.42 525.104 240.611 524.828 239.604 524.828C238.666 524.828 237.898 525.045 237.301 525.479C236.715 525.912 236.422 526.492 236.422 527.219C236.422 527.875 236.697 528.385 237.248 528.748C237.799 529.111 238.912 529.48 240.588 529.855C242.264 530.219 243.576 530.658 244.525 531.174C245.486 531.678 246.195 532.287 246.652 533.002C247.121 533.717 247.355 534.584 247.355 535.604C247.355 537.314 246.646 538.703 245.229 539.77C243.811 540.824 241.953 541.352 239.656 541.352C238.098 541.352 236.709 541.07 235.49 540.508C234.271 539.945 233.322 539.172 232.643 538.188C231.963 537.203 231.623 536.143 231.623 535.006H235.771C235.83 536.014 236.211 536.793 236.914 537.344C237.617 537.883 238.549 538.152 239.709 538.152C240.834 538.152 241.689 537.941 242.275 537.52C242.861 537.086 243.154 536.523 243.154 535.832Z" fill="black"/>
<path d="M618.5 750C618.5 869.451 516.543 966.5 390.5 966.5C264.457 966.5 162.5 869.451 162.5 750C162.5 630.549 264.457 533.5 390.5 533.5C516.543 533.5 618.5 630.549 618.5 750Z" fill="white" stroke="#B9F0FC" stroke-width="5"/>
<path d="M395.975 735.938L401.301 724.406H407.066L398.664 740.719V750H393.303V740.719L384.9 724.406H390.684L395.975 735.938ZM416.664 750.352C413.875 750.352 411.602 749.496 409.844 747.785C408.098 746.074 407.225 743.795 407.225 740.947V740.455C407.225 738.545 407.594 736.84 408.332 735.34C409.07 733.828 410.113 732.668 411.461 731.859C412.82 731.039 414.367 730.629 416.102 730.629C418.703 730.629 420.748 731.449 422.236 733.09C423.736 734.73 424.486 737.057 424.486 740.068V742.143H412.375C412.539 743.385 413.031 744.381 413.852 745.131C414.684 745.881 415.732 746.256 416.998 746.256C418.955 746.256 420.484 745.547 421.586 744.129L424.082 746.924C423.32 748.002 422.289 748.846 420.988 749.455C419.688 750.053 418.246 750.352 416.664 750.352ZM416.084 734.742C415.076 734.742 414.256 735.082 413.623 735.762C413.002 736.441 412.604 737.414 412.428 738.68H419.494V738.275C419.471 737.15 419.166 736.283 418.58 735.674C417.994 735.053 417.162 734.742 416.084 734.742ZM438.408 750C438.174 749.543 438.004 748.975 437.898 748.295C436.668 749.666 435.068 750.352 433.1 750.352C431.236 750.352 429.689 749.812 428.459 748.734C427.24 747.656 426.631 746.297 426.631 744.656C426.631 742.641 427.375 741.094 428.863 740.016C430.363 738.938 432.525 738.393 435.35 738.381H437.688V737.291C437.688 736.412 437.459 735.709 437.002 735.182C436.557 734.654 435.848 734.391 434.875 734.391C434.02 734.391 433.346 734.596 432.854 735.006C432.373 735.416 432.133 735.979 432.133 736.693H427.053C427.053 735.592 427.393 734.572 428.072 733.635C428.752 732.697 429.713 731.965 430.955 731.438C432.197 730.898 433.592 730.629 435.139 730.629C437.482 730.629 439.34 731.221 440.711 732.404C442.094 733.576 442.785 735.229 442.785 737.361V745.605C442.797 747.41 443.049 748.775 443.541 749.701V750H438.408ZM434.207 746.467C434.957 746.467 435.648 746.303 436.281 745.975C436.914 745.635 437.383 745.184 437.688 744.621V741.352H435.789C433.246 741.352 431.893 742.23 431.729 743.988L431.711 744.287C431.711 744.92 431.934 745.441 432.379 745.852C432.824 746.262 433.434 746.467 434.207 746.467ZM457.375 735.744C456.684 735.65 456.074 735.604 455.547 735.604C453.625 735.604 452.365 736.254 451.768 737.555V750H446.688V730.98H451.486L451.627 733.248C452.646 731.502 454.059 730.629 455.863 730.629C456.426 730.629 456.953 730.705 457.445 730.857L457.375 735.744ZM470.137 744.744C470.137 744.123 469.826 743.637 469.205 743.285C468.596 742.922 467.611 742.6 466.252 742.318C461.729 741.369 459.467 739.447 459.467 736.553C459.467 734.865 460.164 733.459 461.559 732.334C462.965 731.197 464.799 730.629 467.061 730.629C469.475 730.629 471.402 731.197 472.844 732.334C474.297 733.471 475.023 734.947 475.023 736.764H469.943C469.943 736.037 469.709 735.439 469.24 734.971C468.771 734.49 468.039 734.25 467.043 734.25C466.188 734.25 465.525 734.443 465.057 734.83C464.588 735.217 464.354 735.709 464.354 736.307C464.354 736.869 464.617 737.326 465.145 737.678C465.684 738.018 466.586 738.316 467.852 738.574C469.117 738.82 470.184 739.102 471.051 739.418C473.734 740.402 475.076 742.107 475.076 744.533C475.076 746.268 474.332 747.674 472.844 748.752C471.355 749.818 469.434 750.352 467.078 750.352C465.484 750.352 464.066 750.07 462.824 749.508C461.594 748.934 460.627 748.154 459.924 747.17C459.221 746.174 458.869 745.102 458.869 743.953H463.686C463.732 744.855 464.066 745.547 464.688 746.027C465.309 746.508 466.141 746.748 467.184 746.748C468.156 746.748 468.889 746.566 469.381 746.203C469.885 745.828 470.137 745.342 470.137 744.744ZM508.686 737.783C508.686 740.303 508.24 742.512 507.35 744.41C506.459 746.309 505.182 747.773 503.518 748.805C501.865 749.836 499.967 750.352 497.822 750.352C495.701 750.352 493.809 749.842 492.145 748.822C490.48 747.803 489.191 746.35 488.277 744.463C487.363 742.564 486.9 740.385 486.889 737.924V736.658C486.889 734.139 487.34 731.924 488.242 730.014C489.156 728.092 490.439 726.621 492.092 725.602C493.756 724.57 495.654 724.055 497.787 724.055C499.92 724.055 501.812 724.57 503.465 725.602C505.129 726.621 506.412 728.092 507.314 730.014C508.229 731.924 508.686 734.133 508.686 736.641V737.783ZM503.342 736.623C503.342 733.939 502.861 731.9 501.9 730.506C500.939 729.111 499.568 728.414 497.787 728.414C496.018 728.414 494.652 729.105 493.691 730.488C492.73 731.859 492.244 733.875 492.232 736.535V737.783C492.232 740.396 492.713 742.424 493.674 743.865C494.635 745.307 496.018 746.027 497.822 746.027C499.592 746.027 500.951 745.336 501.9 743.953C502.85 742.559 503.33 740.531 503.342 737.871V736.623ZM513.572 750V734.707H510.742V730.98H513.572V729.363C513.572 727.23 514.182 725.578 515.4 724.406C516.631 723.223 518.348 722.631 520.551 722.631C521.254 722.631 522.115 722.748 523.135 722.982L523.082 726.92C522.66 726.814 522.145 726.762 521.535 726.762C519.625 726.762 518.67 727.658 518.67 729.451V730.98H522.449V734.707H518.67V750H513.572ZM395.219 792H389.945V766.406H395.219V792ZM404.465 772.98L404.623 775.178C405.982 773.479 407.805 772.629 410.09 772.629C412.105 772.629 413.605 773.221 414.59 774.404C415.574 775.588 416.078 777.357 416.102 779.713V792H411.021V779.836C411.021 778.758 410.787 777.979 410.318 777.498C409.85 777.006 409.07 776.76 407.98 776.76C406.551 776.76 405.479 777.369 404.764 778.588V792H399.684V772.98H404.465ZM419.178 782.35C419.178 779.385 419.84 777.023 421.164 775.266C422.5 773.508 424.322 772.629 426.631 772.629C428.482 772.629 430.012 773.32 431.219 774.703V765H436.316V792H431.729L431.482 789.979C430.217 791.561 428.588 792.352 426.596 792.352C424.357 792.352 422.559 791.473 421.199 789.715C419.852 787.945 419.178 785.49 419.178 782.35ZM424.258 782.719C424.258 784.5 424.568 785.865 425.189 786.814C425.811 787.764 426.713 788.238 427.896 788.238C429.467 788.238 430.574 787.576 431.219 786.252V778.746C430.586 777.422 429.49 776.76 427.932 776.76C425.482 776.76 424.258 778.746 424.258 782.719ZM451.645 790.066C450.391 791.59 448.656 792.352 446.441 792.352C444.402 792.352 442.844 791.766 441.766 790.594C440.699 789.422 440.154 787.705 440.131 785.443V772.98H445.211V785.268C445.211 787.248 446.113 788.238 447.918 788.238C449.641 788.238 450.824 787.641 451.469 786.445V772.98H456.566V792H451.785L451.645 790.066ZM470.699 786.744C470.699 786.123 470.389 785.637 469.768 785.285C469.158 784.922 468.174 784.6 466.814 784.318C462.291 783.369 460.029 781.447 460.029 778.553C460.029 776.865 460.727 775.459 462.121 774.334C463.527 773.197 465.361 772.629 467.623 772.629C470.037 772.629 471.965 773.197 473.406 774.334C474.859 775.471 475.586 776.947 475.586 778.764H470.506C470.506 778.037 470.271 777.439 469.803 776.971C469.334 776.49 468.602 776.25 467.605 776.25C466.75 776.25 466.088 776.443 465.619 776.83C465.15 777.217 464.916 777.709 464.916 778.307C464.916 778.869 465.18 779.326 465.707 779.678C466.246 780.018 467.148 780.316 468.414 780.574C469.68 780.82 470.746 781.102 471.613 781.418C474.297 782.402 475.639 784.107 475.639 786.533C475.639 788.268 474.895 789.674 473.406 790.752C471.918 791.818 469.996 792.352 467.641 792.352C466.047 792.352 464.629 792.07 463.387 791.508C462.156 790.934 461.189 790.154 460.486 789.17C459.783 788.174 459.432 787.102 459.432 785.953H464.248C464.295 786.855 464.629 787.547 465.25 788.027C465.871 788.508 466.703 788.748 467.746 788.748C468.719 788.748 469.451 788.566 469.943 788.203C470.447 787.828 470.699 787.342 470.699 786.744ZM485.008 768.305V772.98H488.26V776.707H485.008V786.199C485.008 786.902 485.143 787.406 485.412 787.711C485.682 788.016 486.197 788.168 486.959 788.168C487.521 788.168 488.02 788.127 488.453 788.045V791.895C487.457 792.199 486.432 792.352 485.377 792.352C481.814 792.352 479.998 790.553 479.928 786.955V776.707H477.15V772.98H479.928V768.305H485.008ZM501.777 777.744C501.086 777.65 500.477 777.604 499.949 777.604C498.027 777.604 496.768 778.254 496.17 779.555V792H491.09V772.98H495.889L496.029 775.248C497.049 773.502 498.461 772.629 500.266 772.629C500.828 772.629 501.355 772.705 501.848 772.857L501.777 777.744ZM511.656 784.811L515.172 772.98H520.621L512.975 794.953L512.553 795.955C511.416 798.439 509.541 799.682 506.928 799.682C506.189 799.682 505.439 799.57 504.678 799.348V795.498L505.451 795.516C506.412 795.516 507.127 795.369 507.596 795.076C508.076 794.783 508.451 794.297 508.721 793.617L509.318 792.053L502.656 772.98H508.123L511.656 784.811ZM382.211 822.908H372.086V829.764H383.969V834H366.812V808.406H383.934V812.678H372.086V818.777H382.211V822.908ZM393.971 820.658L397.17 814.98H402.602L397.188 824.297L402.83 834H397.381L393.988 828.023L390.613 834H385.146L390.789 824.297L385.393 814.98H390.842L393.971 820.658ZM422.166 824.666C422.166 827.596 421.498 829.945 420.162 831.715C418.838 833.473 417.045 834.352 414.783 834.352C412.861 834.352 411.309 833.684 410.125 832.348V841.312H405.045V814.98H409.756L409.932 816.844C411.162 815.367 412.768 814.629 414.748 814.629C417.092 814.629 418.914 815.496 420.215 817.23C421.516 818.965 422.166 821.355 422.166 824.402V824.666ZM417.086 824.297C417.086 822.527 416.77 821.162 416.137 820.201C415.516 819.24 414.607 818.76 413.412 818.76C411.818 818.76 410.723 819.369 410.125 820.588V828.375C410.746 829.629 411.854 830.256 413.447 830.256C415.873 830.256 417.086 828.27 417.086 824.297ZM434.084 834.352C431.295 834.352 429.021 833.496 427.264 831.785C425.518 830.074 424.645 827.795 424.645 824.947V824.455C424.645 822.545 425.014 820.84 425.752 819.34C426.49 817.828 427.533 816.668 428.881 815.859C430.24 815.039 431.787 814.629 433.521 814.629C436.123 814.629 438.168 815.449 439.656 817.09C441.156 818.73 441.906 821.057 441.906 824.068V826.143H429.795C429.959 827.385 430.451 828.381 431.271 829.131C432.104 829.881 433.152 830.256 434.418 830.256C436.375 830.256 437.904 829.547 439.006 828.129L441.502 830.924C440.74 832.002 439.709 832.846 438.408 833.455C437.107 834.053 435.666 834.352 434.084 834.352ZM433.504 818.742C432.496 818.742 431.676 819.082 431.043 819.762C430.422 820.441 430.023 821.414 429.848 822.68H436.914V822.275C436.891 821.15 436.586 820.283 436 819.674C435.414 819.053 434.582 818.742 433.504 818.742ZM455.494 819.744C454.803 819.65 454.193 819.604 453.666 819.604C451.744 819.604 450.484 820.254 449.887 821.555V834H444.807V814.98H449.605L449.746 817.248C450.766 815.502 452.178 814.629 453.982 814.629C454.545 814.629 455.072 814.705 455.564 814.857L455.494 819.744ZM463.316 834H458.219V814.98H463.316V834ZM457.92 810.059C457.92 809.297 458.172 808.67 458.676 808.178C459.191 807.686 459.889 807.439 460.768 807.439C461.635 807.439 462.326 807.686 462.842 808.178C463.357 808.67 463.615 809.297 463.615 810.059C463.615 810.832 463.352 811.465 462.824 811.957C462.309 812.449 461.623 812.695 460.768 812.695C459.912 812.695 459.221 812.449 458.693 811.957C458.178 811.465 457.92 810.832 457.92 810.059ZM476.271 834.352C473.482 834.352 471.209 833.496 469.451 831.785C467.705 830.074 466.832 827.795 466.832 824.947V824.455C466.832 822.545 467.201 820.84 467.939 819.34C468.678 817.828 469.721 816.668 471.068 815.859C472.428 815.039 473.975 814.629 475.709 814.629C478.311 814.629 480.355 815.449 481.844 817.09C483.344 818.73 484.094 821.057 484.094 824.068V826.143H471.982C472.146 827.385 472.639 828.381 473.459 829.131C474.291 829.881 475.34 830.256 476.605 830.256C478.562 830.256 480.092 829.547 481.193 828.129L483.689 830.924C482.928 832.002 481.896 832.846 480.596 833.455C479.295 834.053 477.854 834.352 476.271 834.352ZM475.691 818.742C474.684 818.742 473.863 819.082 473.23 819.762C472.609 820.441 472.211 821.414 472.035 822.68H479.102V822.275C479.078 821.15 478.773 820.283 478.188 819.674C477.602 819.053 476.77 818.742 475.691 818.742ZM491.67 814.98L491.828 817.178C493.188 815.479 495.01 814.629 497.295 814.629C499.311 814.629 500.811 815.221 501.795 816.404C502.779 817.588 503.283 819.357 503.307 821.713V834H498.227V821.836C498.227 820.758 497.992 819.979 497.523 819.498C497.055 819.006 496.275 818.76 495.186 818.76C493.756 818.76 492.684 819.369 491.969 820.588V834H486.889V814.98H491.67ZM515.084 830.256C516.021 830.256 516.783 829.998 517.369 829.482C517.955 828.967 518.26 828.281 518.283 827.426H523.047C523.035 828.715 522.684 829.898 521.992 830.977C521.301 832.043 520.352 832.875 519.145 833.473C517.949 834.059 516.625 834.352 515.172 834.352C512.453 834.352 510.309 833.49 508.738 831.768C507.168 830.033 506.383 827.643 506.383 824.596V824.262C506.383 821.332 507.162 818.994 508.721 817.248C510.279 815.502 512.418 814.629 515.137 814.629C517.516 814.629 519.42 815.309 520.85 816.668C522.291 818.016 523.023 819.814 523.047 822.064H518.283C518.26 821.08 517.955 820.283 517.369 819.674C516.783 819.053 516.01 818.742 515.049 818.742C513.865 818.742 512.969 819.176 512.359 820.043C511.762 820.898 511.463 822.293 511.463 824.227V824.754C511.463 826.711 511.762 828.117 512.359 828.973C512.957 829.828 513.865 830.256 515.084 830.256ZM534.701 834.352C531.912 834.352 529.639 833.496 527.881 831.785C526.135 830.074 525.262 827.795 525.262 824.947V824.455C525.262 822.545 525.631 820.84 526.369 819.34C527.107 817.828 528.15 816.668 529.498 815.859C530.857 815.039 532.404 814.629 534.139 814.629C536.74 814.629 538.785 815.449 540.273 817.09C541.773 818.73 542.523 821.057 542.523 824.068V826.143H530.412C530.576 827.385 531.068 828.381 531.889 829.131C532.721 829.881 533.77 830.256 535.035 830.256C536.992 830.256 538.521 829.547 539.623 828.129L542.119 830.924C541.357 832.002 540.326 832.846 539.025 833.455C537.725 834.053 536.283 834.352 534.701 834.352ZM534.121 818.742C533.113 818.742 532.293 819.082 531.66 819.762C531.039 820.441 530.641 821.414 530.465 822.68H537.531V822.275C537.508 821.15 537.203 820.283 536.617 819.674C536.031 819.053 535.199 818.742 534.121 818.742Z" fill="black"/>
<path d="M246.891 666.438L250.828 631.75H289.078V643.047H261.938L260.25 657.719C263.469 656 266.891 655.141 270.516 655.141C277.016 655.141 282.109 657.156 285.797 661.188C289.484 665.219 291.328 670.859 291.328 678.109C291.328 682.516 290.391 686.469 288.516 689.969C286.672 693.438 284.016 696.141 280.547 698.078C277.078 699.984 272.984 700.938 268.266 700.938C264.141 700.938 260.312 700.109 256.781 698.453C253.25 696.766 250.453 694.406 248.391 691.375C246.359 688.344 245.281 684.891 245.156 681.016H258.562C258.844 683.859 259.828 686.078 261.516 687.672C263.234 689.234 265.469 690.016 268.219 690.016C271.281 690.016 273.641 688.922 275.297 686.734C276.953 684.516 277.781 681.391 277.781 677.359C277.781 673.484 276.828 670.516 274.922 668.453C273.016 666.391 270.312 665.359 266.812 665.359C263.594 665.359 260.984 666.203 258.984 667.891L257.672 669.109L246.891 666.438ZM327.891 661.797H344.812V674.031H327.891V693.156H315V674.031H298.031V661.797H315V643.469H327.891V661.797Z" fill="#86D3E4"/>
</svg>
