<svg width="686" height="824" viewBox="0 0 686 824" fill="none" xmlns="http://www.w3.org/2000/svg">
<rect x="361" y="31" width="277" height="377" rx="62" fill="#BFF1FC" fill-opacity="0.33"/>
<rect y="31" width="277" height="377" rx="62" fill="#BFF1FC" fill-opacity="0.16"/>
<rect x="361" y="447" width="277" height="377" rx="62" fill="#B9F0FC" fill-opacity="0.24"/>
<rect x="423.397" width="274.308" height="377.409" rx="62" transform="rotate(16.8498 423.397 0)" fill="white"/>
<rect y="447" width="277" height="377" rx="62" fill="#BFF1FC" fill-opacity="0.4"/>
<path d="M411.318 181.475C411.119 184.229 410.1 186.396 408.26 187.979C406.432 189.561 404.018 190.352 401.018 190.352C397.736 190.352 395.152 189.25 393.266 187.047C391.391 184.832 390.453 181.797 390.453 177.941V176.377C390.453 173.916 390.887 171.748 391.754 169.873C392.621 167.998 393.857 166.562 395.463 165.566C397.08 164.559 398.955 164.055 401.088 164.055C404.041 164.055 406.42 164.846 408.225 166.428C410.029 168.01 411.072 170.23 411.354 173.09H406.08C405.951 171.438 405.488 170.242 404.691 169.504C403.906 168.754 402.705 168.379 401.088 168.379C399.33 168.379 398.012 169.012 397.133 170.277C396.266 171.531 395.82 173.482 395.797 176.131V178.064C395.797 180.83 396.213 182.852 397.045 184.129C397.889 185.406 399.213 186.045 401.018 186.045C402.646 186.045 403.859 185.676 404.656 184.938C405.465 184.188 405.928 183.033 406.045 181.475H411.318ZM425.838 188.066C424.584 189.59 422.85 190.352 420.635 190.352C418.596 190.352 417.037 189.766 415.959 188.594C414.893 187.422 414.348 185.705 414.324 183.443V170.98H419.404V183.268C419.404 185.248 420.307 186.238 422.111 186.238C423.834 186.238 425.018 185.641 425.662 184.445V170.98H430.76V190H425.979L425.838 188.066ZM444.893 184.744C444.893 184.123 444.582 183.637 443.961 183.285C443.352 182.922 442.367 182.6 441.008 182.318C436.484 181.369 434.223 179.447 434.223 176.553C434.223 174.865 434.92 173.459 436.314 172.334C437.721 171.197 439.555 170.629 441.816 170.629C444.23 170.629 446.158 171.197 447.6 172.334C449.053 173.471 449.779 174.947 449.779 176.764H444.699C444.699 176.037 444.465 175.439 443.996 174.971C443.527 174.49 442.795 174.25 441.799 174.25C440.943 174.25 440.281 174.443 439.812 174.83C439.344 175.217 439.109 175.709 439.109 176.307C439.109 176.869 439.373 177.326 439.9 177.678C440.439 178.018 441.342 178.316 442.607 178.574C443.873 178.82 444.939 179.102 445.807 179.418C448.49 180.402 449.832 182.107 449.832 184.533C449.832 186.268 449.088 187.674 447.6 188.752C446.111 189.818 444.189 190.352 441.834 190.352C440.24 190.352 438.822 190.07 437.58 189.508C436.35 188.934 435.383 188.154 434.68 187.17C433.977 186.174 433.625 185.102 433.625 183.953H438.441C438.488 184.855 438.822 185.547 439.443 186.027C440.064 186.508 440.896 186.748 441.939 186.748C442.912 186.748 443.645 186.566 444.137 186.203C444.641 185.828 444.893 185.342 444.893 184.744ZM459.201 166.305V170.98H462.453V174.707H459.201V184.199C459.201 184.902 459.336 185.406 459.605 185.711C459.875 186.016 460.391 186.168 461.152 186.168C461.715 186.168 462.213 186.127 462.646 186.045V189.895C461.65 190.199 460.625 190.352 459.57 190.352C456.008 190.352 454.191 188.553 454.121 184.955V174.707H451.344V170.98H454.121V166.305H459.201ZM463.965 180.314C463.965 178.428 464.328 176.746 465.055 175.27C465.781 173.793 466.824 172.65 468.184 171.842C469.555 171.033 471.143 170.629 472.947 170.629C475.514 170.629 477.605 171.414 479.223 172.984C480.852 174.555 481.76 176.688 481.947 179.383L481.982 180.684C481.982 183.602 481.168 185.945 479.539 187.715C477.91 189.473 475.725 190.352 472.982 190.352C470.24 190.352 468.049 189.473 466.408 187.715C464.779 185.957 463.965 183.566 463.965 180.543V180.314ZM469.045 180.684C469.045 182.488 469.385 183.871 470.064 184.832C470.744 185.781 471.717 186.256 472.982 186.256C474.213 186.256 475.174 185.787 475.865 184.85C476.557 183.9 476.902 182.389 476.902 180.314C476.902 178.545 476.557 177.174 475.865 176.201C475.174 175.229 474.201 174.742 472.947 174.742C471.705 174.742 470.744 175.229 470.064 176.201C469.385 177.162 469.045 178.656 469.045 180.684ZM489.875 170.98L490.033 173.107C491.381 171.455 493.203 170.629 495.5 170.629C497.949 170.629 499.631 171.596 500.545 173.529C501.881 171.596 503.785 170.629 506.258 170.629C508.32 170.629 509.855 171.232 510.863 172.439C511.871 173.635 512.375 175.439 512.375 177.854V190H507.277V177.871C507.277 176.793 507.066 176.008 506.645 175.516C506.223 175.012 505.479 174.76 504.412 174.76C502.889 174.76 501.834 175.486 501.248 176.939L501.266 190H496.186V177.889C496.186 176.787 495.969 175.99 495.535 175.498C495.102 175.006 494.363 174.76 493.32 174.76C491.879 174.76 490.836 175.357 490.191 176.553V190H485.111V170.98H489.875ZM521.656 190H516.559V170.98H521.656V190ZM516.26 166.059C516.26 165.297 516.512 164.67 517.016 164.178C517.531 163.686 518.229 163.439 519.107 163.439C519.975 163.439 520.666 163.686 521.182 164.178C521.697 164.67 521.955 165.297 521.955 166.059C521.955 166.832 521.691 167.465 521.164 167.957C520.648 168.449 519.963 168.695 519.107 168.695C518.252 168.695 517.561 168.449 517.033 167.957C516.518 167.465 516.26 166.832 516.26 166.059ZM536.158 184.744C536.158 184.123 535.848 183.637 535.227 183.285C534.617 182.922 533.633 182.6 532.273 182.318C527.75 181.369 525.488 179.447 525.488 176.553C525.488 174.865 526.186 173.459 527.58 172.334C528.986 171.197 530.82 170.629 533.082 170.629C535.496 170.629 537.424 171.197 538.865 172.334C540.318 173.471 541.045 174.947 541.045 176.764H535.965C535.965 176.037 535.73 175.439 535.262 174.971C534.793 174.49 534.061 174.25 533.064 174.25C532.209 174.25 531.547 174.443 531.078 174.83C530.609 175.217 530.375 175.709 530.375 176.307C530.375 176.869 530.639 177.326 531.166 177.678C531.705 178.018 532.607 178.316 533.873 178.574C535.139 178.82 536.205 179.102 537.072 179.418C539.756 180.402 541.098 182.107 541.098 184.533C541.098 186.268 540.354 187.674 538.865 188.752C537.377 189.818 535.455 190.352 533.1 190.352C531.506 190.352 530.088 190.07 528.846 189.508C527.615 188.934 526.648 188.154 525.945 187.17C525.242 186.174 524.891 185.102 524.891 183.953H529.707C529.754 184.855 530.088 185.547 530.709 186.027C531.33 186.508 532.162 186.748 533.205 186.748C534.178 186.748 534.91 186.566 535.402 186.203C535.906 185.828 536.158 185.342 536.158 184.744ZM555.406 190C555.172 189.543 555.002 188.975 554.896 188.295C553.666 189.666 552.066 190.352 550.098 190.352C548.234 190.352 546.688 189.812 545.457 188.734C544.238 187.656 543.629 186.297 543.629 184.656C543.629 182.641 544.373 181.094 545.861 180.016C547.361 178.938 549.523 178.393 552.348 178.381H554.686V177.291C554.686 176.412 554.457 175.709 554 175.182C553.555 174.654 552.846 174.391 551.873 174.391C551.018 174.391 550.344 174.596 549.852 175.006C549.371 175.416 549.131 175.979 549.131 176.693H544.051C544.051 175.592 544.391 174.572 545.07 173.635C545.75 172.697 546.711 171.965 547.953 171.438C549.195 170.898 550.59 170.629 552.137 170.629C554.48 170.629 556.338 171.221 557.709 172.404C559.092 173.576 559.783 175.229 559.783 177.361V185.605C559.795 187.41 560.047 188.775 560.539 189.701V190H555.406ZM551.205 186.467C551.955 186.467 552.646 186.303 553.279 185.975C553.912 185.635 554.381 185.184 554.686 184.621V181.352H552.787C550.244 181.352 548.891 182.23 548.727 183.988L548.709 184.287C548.709 184.92 548.932 185.441 549.377 185.852C549.822 186.262 550.432 186.467 551.205 186.467ZM580.824 180.666C580.824 183.713 580.174 186.092 578.873 187.803C577.572 189.502 575.756 190.352 573.424 190.352C571.361 190.352 569.715 189.561 568.484 187.979L568.256 190H563.686V163H568.766V172.686C569.938 171.314 571.479 170.629 573.389 170.629C575.709 170.629 577.525 171.484 578.838 173.195C580.162 174.895 580.824 177.291 580.824 180.385V180.666ZM575.744 180.297C575.744 178.375 575.439 176.975 574.83 176.096C574.221 175.205 573.312 174.76 572.105 174.76C570.488 174.76 569.375 175.422 568.766 176.746V184.252C569.387 185.588 570.512 186.256 572.141 186.256C573.781 186.256 574.859 185.447 575.375 183.83C575.621 183.057 575.744 181.879 575.744 180.297ZM589.332 190H584.234V163H589.332V190ZM602.287 190.352C599.498 190.352 597.225 189.496 595.467 187.785C593.721 186.074 592.848 183.795 592.848 180.947V180.455C592.848 178.545 593.217 176.84 593.955 175.34C594.693 173.828 595.736 172.668 597.084 171.859C598.443 171.039 599.99 170.629 601.725 170.629C604.326 170.629 606.371 171.449 607.859 173.09C609.359 174.73 610.109 177.057 610.109 180.068V182.143H597.998C598.162 183.385 598.654 184.381 599.475 185.131C600.307 185.881 601.355 186.256 602.621 186.256C604.578 186.256 606.107 185.547 607.209 184.129L609.705 186.924C608.943 188.002 607.912 188.846 606.611 189.455C605.311 190.053 603.869 190.352 602.287 190.352ZM601.707 174.742C600.699 174.742 599.879 175.082 599.246 175.762C598.625 176.441 598.227 177.414 598.051 178.68H605.117V178.275C605.094 177.15 604.789 176.283 604.203 175.674C603.617 175.053 602.785 174.742 601.707 174.742Z" fill="#86D3E4"/>
<path d="M504.621 83.4817C510.197 80.1491 517.273 81.2525 521.307 86.0835L524.599 90.0263C529.638 96.0616 527.896 105.289 520.93 109.452L516.379 112.172C510.803 115.504 503.727 114.401 499.693 109.57L496.401 105.627C491.362 99.5919 493.105 90.365 500.07 86.2016L504.621 83.4817Z" fill="#BFF1FC"/>
<circle cx="510" cy="103" r="13.5" fill="white" stroke="#BFF1FC" stroke-width="5"/>
<line y1="-2.5" x2="27.85" y2="-2.5" transform="matrix(-0.242664 0.97011 -0.979338 -0.202229 503.275 115.754)" stroke="#BFF1FC" stroke-width="5"/>
<line y1="-2.5" x2="26.5496" y2="-2.5" transform="matrix(-0.23758 0.971368 -0.98022 -0.197912 507.78 118.211)" stroke="#BFF1FC" stroke-width="5"/>
<line y1="-2.5" x2="3.69619" y2="-2.5" transform="matrix(0.97516 0.221502 -0.265296 0.964167 497.868 143.181)" stroke="#BFF1FC" stroke-width="5"/>
<line y1="-2.5" x2="4.13674" y2="-2.5" transform="matrix(0.98022 0.197912 -0.23758 0.971368 501.472 131.31)" stroke="#BFF1FC" stroke-width="5"/>
<line y1="-2.5" x2="5.54428" y2="-2.5" transform="matrix(0.97516 0.221502 -0.265296 0.964167 499.22 134.994)" stroke="#BFF1FC" stroke-width="5"/>
<path d="M408.422 235.047V241.603C408.422 242.692 408.08 243.553 407.396 244.187C406.717 244.82 405.788 245.137 404.607 245.137C403.445 245.137 402.522 244.829 401.839 244.214C401.155 243.599 400.807 242.753 400.793 241.678V235.047H402.844V241.616C402.844 242.268 402.999 242.744 403.309 243.045C403.623 243.341 404.056 243.489 404.607 243.489C405.76 243.489 406.346 242.883 406.364 241.671V235.047H408.422ZM412.339 235.785V237.604H413.604V239.053H412.339V242.744C412.339 243.018 412.391 243.214 412.496 243.332C412.601 243.451 412.801 243.51 413.098 243.51C413.316 243.51 413.51 243.494 413.679 243.462V244.959C413.291 245.077 412.893 245.137 412.482 245.137C411.097 245.137 410.391 244.437 410.363 243.038V239.053H409.283V237.604H410.363V235.785H412.339ZM421.595 245.137C420.51 245.137 419.626 244.804 418.942 244.139C418.263 243.473 417.924 242.587 417.924 241.479V241.288C417.924 240.545 418.067 239.882 418.354 239.299C418.642 238.711 419.047 238.26 419.571 237.945C420.1 237.626 420.701 237.467 421.376 237.467C422.388 237.467 423.183 237.786 423.762 238.424C424.345 239.062 424.637 239.966 424.637 241.138V241.944H419.927C419.991 242.427 420.182 242.815 420.501 243.106C420.825 243.398 421.232 243.544 421.725 243.544C422.486 243.544 423.08 243.268 423.509 242.717L424.479 243.804C424.183 244.223 423.782 244.551 423.276 244.788C422.771 245.021 422.21 245.137 421.595 245.137ZM421.369 239.066C420.977 239.066 420.658 239.199 420.412 239.463C420.171 239.727 420.016 240.105 419.947 240.598H422.695V240.44C422.686 240.003 422.568 239.666 422.34 239.429C422.112 239.187 421.788 239.066 421.369 239.066ZM427.583 237.604L427.645 238.458C428.173 237.797 428.882 237.467 429.771 237.467C430.554 237.467 431.138 237.697 431.521 238.157C431.903 238.618 432.099 239.306 432.108 240.222V245H430.133V240.27C430.133 239.85 430.042 239.547 429.859 239.36C429.677 239.169 429.374 239.073 428.95 239.073C428.394 239.073 427.977 239.31 427.699 239.784V245H425.724V237.604H427.583ZM435.697 245H433.715V237.604H435.697V245ZM433.599 235.689C433.599 235.393 433.697 235.149 433.893 234.958C434.093 234.767 434.364 234.671 434.706 234.671C435.043 234.671 435.312 234.767 435.513 234.958C435.713 235.149 435.813 235.393 435.813 235.689C435.813 235.99 435.711 236.236 435.506 236.428C435.305 236.619 435.039 236.715 434.706 236.715C434.373 236.715 434.104 236.619 433.899 236.428C433.699 236.236 433.599 235.99 433.599 235.689ZM439.184 237.604L439.245 238.431C439.769 237.788 440.478 237.467 441.371 237.467C442.324 237.467 442.978 237.843 443.333 238.595C443.853 237.843 444.593 237.467 445.555 237.467C446.357 237.467 446.954 237.701 447.346 238.171C447.738 238.636 447.934 239.338 447.934 240.276V245H445.951V240.283C445.951 239.864 445.869 239.559 445.705 239.367C445.541 239.171 445.252 239.073 444.837 239.073C444.244 239.073 443.834 239.356 443.606 239.921L443.613 245H441.638V240.29C441.638 239.862 441.553 239.552 441.385 239.36C441.216 239.169 440.929 239.073 440.523 239.073C439.963 239.073 439.557 239.306 439.307 239.771V245H437.331V237.604H439.184ZM457.23 245C457.139 244.822 457.073 244.601 457.032 244.337C456.554 244.87 455.932 245.137 455.166 245.137C454.441 245.137 453.84 244.927 453.361 244.508C452.887 244.089 452.65 243.56 452.65 242.922C452.65 242.138 452.94 241.536 453.519 241.117C454.102 240.698 454.943 240.486 456.041 240.481H456.95V240.058C456.95 239.716 456.861 239.442 456.684 239.237C456.51 239.032 456.235 238.93 455.856 238.93C455.524 238.93 455.262 239.009 455.07 239.169C454.883 239.328 454.79 239.547 454.79 239.825H452.814C452.814 239.397 452.947 239 453.211 238.636C453.475 238.271 453.849 237.986 454.332 237.781C454.815 237.572 455.357 237.467 455.959 237.467C456.87 237.467 457.593 237.697 458.126 238.157C458.664 238.613 458.933 239.256 458.933 240.085V243.291C458.937 243.993 459.035 244.524 459.227 244.884V245H457.23ZM455.597 243.626C455.888 243.626 456.157 243.562 456.403 243.435C456.649 243.302 456.832 243.127 456.95 242.908V241.637H456.212C455.223 241.637 454.697 241.979 454.633 242.662L454.626 242.778C454.626 243.024 454.713 243.227 454.886 243.387C455.059 243.546 455.296 243.626 455.597 243.626ZM460.143 241.247C460.143 240.094 460.4 239.176 460.915 238.492C461.435 237.809 462.143 237.467 463.041 237.467C463.761 237.467 464.356 237.736 464.825 238.273V234.5H466.808V245H465.023L464.928 244.214C464.436 244.829 463.802 245.137 463.027 245.137C462.157 245.137 461.457 244.795 460.929 244.111C460.405 243.423 460.143 242.468 460.143 241.247ZM462.118 241.391C462.118 242.083 462.239 242.614 462.48 242.983C462.722 243.353 463.073 243.537 463.533 243.537C464.144 243.537 464.575 243.28 464.825 242.765V239.846C464.579 239.331 464.153 239.073 463.547 239.073C462.594 239.073 462.118 239.846 462.118 241.391ZM473.678 237.604L473.739 238.431C474.263 237.788 474.972 237.467 475.865 237.467C476.818 237.467 477.472 237.843 477.827 238.595C478.347 237.843 479.087 237.467 480.049 237.467C480.851 237.467 481.448 237.701 481.84 238.171C482.232 238.636 482.428 239.338 482.428 240.276V245H480.445V240.283C480.445 239.864 480.363 239.559 480.199 239.367C480.035 239.171 479.746 239.073 479.331 239.073C478.739 239.073 478.328 239.356 478.101 239.921L478.107 245H476.132V240.29C476.132 239.862 476.048 239.552 475.879 239.36C475.71 239.169 475.423 239.073 475.018 239.073C474.457 239.073 474.051 239.306 473.801 239.771V245H471.825V237.604H473.678ZM486.037 245H484.055V237.604H486.037V245ZM483.938 235.689C483.938 235.393 484.036 235.149 484.232 234.958C484.433 234.767 484.704 234.671 485.046 234.671C485.383 234.671 485.652 234.767 485.853 234.958C486.053 235.149 486.153 235.393 486.153 235.689C486.153 235.99 486.051 236.236 485.846 236.428C485.645 236.619 485.379 236.715 485.046 236.715C484.713 236.715 484.444 236.619 484.239 236.428C484.039 236.236 483.938 235.99 483.938 235.689ZM489.489 237.604L489.551 238.458C490.079 237.797 490.788 237.467 491.677 237.467C492.461 237.467 493.044 237.697 493.427 238.157C493.81 238.618 494.006 239.306 494.015 240.222V245H492.039V240.27C492.039 239.85 491.948 239.547 491.766 239.36C491.583 239.169 491.28 239.073 490.856 239.073C490.3 239.073 489.883 239.31 489.605 239.784V245H487.63V237.604H489.489ZM497.604 245H495.621V237.604H497.604V245ZM495.505 235.689C495.505 235.393 495.603 235.149 495.799 234.958C495.999 234.767 496.271 234.671 496.612 234.671C496.95 234.671 497.218 234.767 497.419 234.958C497.619 235.149 497.72 235.393 497.72 235.689C497.72 235.99 497.617 236.236 497.412 236.428C497.212 236.619 496.945 236.715 496.612 236.715C496.28 236.715 496.011 236.619 495.806 236.428C495.605 236.236 495.505 235.99 495.505 235.689ZM501.09 237.604L501.151 238.431C501.675 237.788 502.384 237.467 503.277 237.467C504.23 237.467 504.884 237.843 505.239 238.595C505.759 237.843 506.499 237.467 507.461 237.467C508.263 237.467 508.86 237.701 509.252 238.171C509.644 238.636 509.84 239.338 509.84 240.276V245H507.857V240.283C507.857 239.864 507.775 239.559 507.611 239.367C507.447 239.171 507.158 239.073 506.743 239.073C506.151 239.073 505.741 239.356 505.513 239.921L505.52 245H503.544V240.29C503.544 239.862 503.46 239.552 503.291 239.36C503.122 239.169 502.835 239.073 502.43 239.073C501.869 239.073 501.464 239.306 501.213 239.771V245H499.237V237.604H501.09ZM517.619 242.587L518.993 237.604H521.058L518.562 245H516.676L514.181 237.604H516.245L517.619 242.587ZM525.241 245.137C524.157 245.137 523.272 244.804 522.589 244.139C521.91 243.473 521.57 242.587 521.57 241.479V241.288C521.57 240.545 521.714 239.882 522.001 239.299C522.288 238.711 522.694 238.26 523.218 237.945C523.746 237.626 524.348 237.467 525.022 237.467C526.034 237.467 526.829 237.786 527.408 238.424C527.992 239.062 528.283 239.966 528.283 241.138V241.944H523.573C523.637 242.427 523.828 242.815 524.147 243.106C524.471 243.398 524.879 243.544 525.371 243.544C526.132 243.544 526.727 243.268 527.155 242.717L528.126 243.804C527.83 244.223 527.429 244.551 526.923 244.788C526.417 245.021 525.856 245.137 525.241 245.137ZM525.016 239.066C524.624 239.066 524.305 239.199 524.059 239.463C523.817 239.727 523.662 240.105 523.594 240.598H526.342V240.44C526.333 240.003 526.214 239.666 525.986 239.429C525.758 239.187 525.435 239.066 525.016 239.066ZM531.229 237.604L531.291 238.458C531.82 237.797 532.528 237.467 533.417 237.467C534.201 237.467 534.784 237.697 535.167 238.157C535.55 238.618 535.746 239.306 535.755 240.222V245H533.779V240.27C533.779 239.85 533.688 239.547 533.506 239.36C533.324 239.169 533.021 239.073 532.597 239.073C532.041 239.073 531.624 239.31 531.346 239.784V245H529.37V237.604H531.229ZM539.344 245H537.361V237.604H539.344V245ZM537.245 235.689C537.245 235.393 537.343 235.149 537.539 234.958C537.74 234.767 538.011 234.671 538.353 234.671C538.69 234.671 538.959 234.767 539.159 234.958C539.36 235.149 539.46 235.393 539.46 235.689C539.46 235.99 539.357 236.236 539.152 236.428C538.952 236.619 538.685 236.715 538.353 236.715C538.02 236.715 537.751 236.619 537.546 236.428C537.345 236.236 537.245 235.99 537.245 235.689ZM545.264 245C545.173 244.822 545.106 244.601 545.065 244.337C544.587 244.87 543.965 245.137 543.199 245.137C542.475 245.137 541.873 244.927 541.395 244.508C540.921 244.089 540.684 243.56 540.684 242.922C540.684 242.138 540.973 241.536 541.552 241.117C542.135 240.698 542.976 240.486 544.074 240.481H544.983V240.058C544.983 239.716 544.895 239.442 544.717 239.237C544.544 239.032 544.268 238.93 543.89 238.93C543.557 238.93 543.295 239.009 543.104 239.169C542.917 239.328 542.823 239.547 542.823 239.825H540.848C540.848 239.397 540.98 239 541.244 238.636C541.508 238.271 541.882 237.986 542.365 237.781C542.848 237.572 543.391 237.467 543.992 237.467C544.904 237.467 545.626 237.697 546.159 238.157C546.697 238.613 546.966 239.256 546.966 240.085V243.291C546.97 243.993 547.068 244.524 547.26 244.884V245H545.264ZM543.63 243.626C543.922 243.626 544.19 243.562 544.437 243.435C544.683 243.302 544.865 243.127 544.983 242.908V241.637H544.245C543.256 241.637 542.73 241.979 542.666 242.662L542.659 242.778C542.659 243.024 542.746 243.227 542.919 243.387C543.092 243.546 543.329 243.626 543.63 243.626ZM550.336 237.604L550.397 238.431C550.922 237.788 551.63 237.467 552.523 237.467C553.476 237.467 554.13 237.843 554.485 238.595C555.005 237.843 555.745 237.467 556.707 237.467C557.509 237.467 558.106 237.701 558.498 238.171C558.89 238.636 559.086 239.338 559.086 240.276V245H557.104V240.283C557.104 239.864 557.021 239.559 556.857 239.367C556.693 239.171 556.404 239.073 555.989 239.073C555.397 239.073 554.987 239.356 554.759 239.921L554.766 245H552.79V240.29C552.79 239.862 552.706 239.552 552.537 239.36C552.368 239.169 552.081 239.073 551.676 239.073C551.115 239.073 550.71 239.306 550.459 239.771V245H548.483V237.604H550.336ZM561.123 247.495L560.091 246.955L560.337 246.511C560.642 245.955 560.799 245.401 560.809 244.85V243.318H562.477L562.47 244.686C562.465 245.191 562.338 245.702 562.087 246.217C561.836 246.732 561.515 247.158 561.123 247.495ZM567.207 241.233C567.207 240.071 567.465 239.153 567.979 238.479C568.499 237.804 569.21 237.467 570.112 237.467C570.905 237.467 571.536 237.77 572.006 238.376L572.136 237.604H573.872V247.844H571.89V244.364C571.434 244.879 570.837 245.137 570.099 245.137C569.219 245.137 568.517 244.795 567.993 244.111C567.469 243.428 567.207 242.468 567.207 241.233ZM569.183 241.377C569.183 242.083 569.306 242.621 569.552 242.99C569.802 243.359 570.153 243.544 570.604 243.544C571.211 243.544 571.639 243.302 571.89 242.819V239.764C571.644 239.299 571.22 239.066 570.618 239.066C570.162 239.066 569.809 239.251 569.559 239.62C569.308 239.989 569.183 240.575 569.183 241.377ZM579.86 244.248C579.373 244.84 578.698 245.137 577.837 245.137C577.044 245.137 576.438 244.909 576.019 244.453C575.604 243.997 575.392 243.33 575.383 242.45V237.604H577.358V242.382C577.358 243.152 577.709 243.537 578.411 243.537C579.081 243.537 579.541 243.305 579.792 242.84V237.604H581.774V245H579.915L579.86 244.248ZM585.35 245H583.367V237.604H585.35V245ZM583.251 235.689C583.251 235.393 583.349 235.149 583.545 234.958C583.745 234.767 584.017 234.671 584.358 234.671C584.696 234.671 584.965 234.767 585.165 234.958C585.366 235.149 585.466 235.393 585.466 235.689C585.466 235.99 585.363 236.236 585.158 236.428C584.958 236.619 584.691 236.715 584.358 236.715C584.026 236.715 583.757 236.619 583.552 236.428C583.351 236.236 583.251 235.99 583.251 235.689ZM590.989 242.956C590.989 242.715 590.868 242.525 590.627 242.389C590.39 242.247 590.007 242.122 589.479 242.013C587.719 241.644 586.84 240.896 586.84 239.771C586.84 239.114 587.111 238.567 587.653 238.13C588.2 237.688 588.913 237.467 589.793 237.467C590.732 237.467 591.481 237.688 592.042 238.13C592.607 238.572 592.89 239.146 592.89 239.853H590.914C590.914 239.57 590.823 239.338 590.641 239.155C590.458 238.968 590.174 238.875 589.786 238.875C589.453 238.875 589.196 238.95 589.014 239.101C588.831 239.251 588.74 239.442 588.74 239.675C588.74 239.894 588.843 240.071 589.048 240.208C589.257 240.34 589.608 240.456 590.101 240.557C590.593 240.652 591.007 240.762 591.345 240.885C592.388 241.268 592.91 241.931 592.91 242.874C592.91 243.549 592.621 244.095 592.042 244.515C591.463 244.929 590.716 245.137 589.8 245.137C589.18 245.137 588.629 245.027 588.146 244.809C587.667 244.585 587.291 244.282 587.018 243.899C586.744 243.512 586.607 243.095 586.607 242.648H588.48C588.499 242.999 588.629 243.268 588.87 243.455C589.112 243.642 589.435 243.735 589.841 243.735C590.219 243.735 590.504 243.665 590.695 243.523C590.891 243.378 590.989 243.188 590.989 242.956ZM402.577 253.604L402.639 254.458C403.167 253.797 403.876 253.467 404.765 253.467C405.549 253.467 406.132 253.697 406.515 254.157C406.897 254.618 407.093 255.306 407.103 256.222V261H405.127V256.27C405.127 255.85 405.036 255.547 404.854 255.36C404.671 255.169 404.368 255.073 403.944 255.073C403.388 255.073 402.971 255.31 402.693 255.784V261H400.718V253.604H402.577ZM408.299 257.233C408.299 256.5 408.44 255.846 408.723 255.271C409.005 254.697 409.411 254.253 409.939 253.938C410.473 253.624 411.09 253.467 411.792 253.467C412.79 253.467 413.604 253.772 414.232 254.383C414.866 254.993 415.219 255.823 415.292 256.871L415.306 257.377C415.306 258.512 414.989 259.423 414.355 260.111C413.722 260.795 412.872 261.137 411.806 261.137C410.739 261.137 409.887 260.795 409.249 260.111C408.616 259.428 408.299 258.498 408.299 257.322V257.233ZM410.274 257.377C410.274 258.079 410.407 258.617 410.671 258.99C410.935 259.359 411.313 259.544 411.806 259.544C412.284 259.544 412.658 259.362 412.927 258.997C413.196 258.628 413.33 258.04 413.33 257.233C413.33 256.545 413.196 256.012 412.927 255.634C412.658 255.256 412.28 255.066 411.792 255.066C411.309 255.066 410.935 255.256 410.671 255.634C410.407 256.007 410.274 256.589 410.274 257.377ZM420.528 258.956C420.528 258.715 420.408 258.525 420.166 258.389C419.929 258.247 419.546 258.122 419.018 258.013C417.258 257.644 416.379 256.896 416.379 255.771C416.379 255.114 416.65 254.567 417.192 254.13C417.739 253.688 418.452 253.467 419.332 253.467C420.271 253.467 421.021 253.688 421.581 254.13C422.146 254.572 422.429 255.146 422.429 255.853H420.453C420.453 255.57 420.362 255.338 420.18 255.155C419.997 254.968 419.713 254.875 419.325 254.875C418.993 254.875 418.735 254.95 418.553 255.101C418.37 255.251 418.279 255.442 418.279 255.675C418.279 255.894 418.382 256.071 418.587 256.208C418.797 256.34 419.147 256.456 419.64 256.557C420.132 256.652 420.547 256.762 420.884 256.885C421.927 257.268 422.449 257.931 422.449 258.874C422.449 259.549 422.16 260.095 421.581 260.515C421.002 260.929 420.255 261.137 419.339 261.137C418.719 261.137 418.168 261.027 417.685 260.809C417.206 260.585 416.83 260.282 416.557 259.899C416.283 259.512 416.146 259.095 416.146 258.648H418.02C418.038 258.999 418.168 259.268 418.409 259.455C418.651 259.642 418.974 259.735 419.38 259.735C419.758 259.735 420.043 259.665 420.234 259.523C420.43 259.378 420.528 259.188 420.528 258.956ZM426.093 251.785V253.604H427.357V255.053H426.093V258.744C426.093 259.018 426.145 259.214 426.25 259.332C426.355 259.451 426.555 259.51 426.852 259.51C427.07 259.51 427.264 259.494 427.433 259.462V260.959C427.045 261.077 426.646 261.137 426.236 261.137C424.851 261.137 424.145 260.437 424.117 259.038V255.053H423.037V253.604H424.117V251.785H426.093ZM432.614 255.456C432.345 255.42 432.108 255.401 431.903 255.401C431.156 255.401 430.666 255.654 430.434 256.16V261H428.458V253.604H430.324L430.379 254.485C430.775 253.806 431.325 253.467 432.026 253.467C432.245 253.467 432.45 253.496 432.642 253.556L432.614 255.456ZM438.001 260.248C437.513 260.84 436.839 261.137 435.978 261.137C435.185 261.137 434.578 260.909 434.159 260.453C433.744 259.997 433.533 259.33 433.523 258.45V253.604H435.499V258.382C435.499 259.152 435.85 259.537 436.552 259.537C437.222 259.537 437.682 259.305 437.933 258.84V253.604H439.915V261H438.056L438.001 260.248ZM441.098 257.247C441.098 256.094 441.355 255.176 441.87 254.492C442.39 253.809 443.098 253.467 443.996 253.467C444.716 253.467 445.311 253.736 445.78 254.273V250.5H447.763V261H445.979L445.883 260.214C445.391 260.829 444.757 261.137 443.982 261.137C443.112 261.137 442.412 260.795 441.884 260.111C441.36 259.423 441.098 258.468 441.098 257.247ZM443.073 257.391C443.073 258.083 443.194 258.614 443.436 258.983C443.677 259.353 444.028 259.537 444.488 259.537C445.099 259.537 445.53 259.28 445.78 258.765V255.846C445.534 255.331 445.108 255.073 444.502 255.073C443.549 255.073 443.073 255.846 443.073 257.391ZM456.185 261.137C455.1 261.137 454.216 260.804 453.532 260.139C452.853 259.473 452.514 258.587 452.514 257.479V257.288C452.514 256.545 452.657 255.882 452.944 255.299C453.231 254.711 453.637 254.26 454.161 253.945C454.69 253.626 455.291 253.467 455.966 253.467C456.978 253.467 457.773 253.786 458.352 254.424C458.935 255.062 459.227 255.966 459.227 257.138V257.944H454.517C454.58 258.427 454.772 258.815 455.091 259.106C455.414 259.398 455.822 259.544 456.314 259.544C457.076 259.544 457.67 259.268 458.099 258.717L459.069 259.804C458.773 260.223 458.372 260.551 457.866 260.788C457.36 261.021 456.8 261.137 456.185 261.137ZM455.959 255.066C455.567 255.066 455.248 255.199 455.002 255.463C454.76 255.727 454.605 256.105 454.537 256.598H457.285V256.44C457.276 256.003 457.158 255.666 456.93 255.429C456.702 255.187 456.378 255.066 455.959 255.066ZM463.171 255.812L464.415 253.604H466.527L464.422 257.227L466.616 261H464.497L463.178 258.676L461.865 261H459.739L461.934 257.227L459.835 253.604H461.954L463.171 255.812ZM470.745 261.137C469.66 261.137 468.776 260.804 468.093 260.139C467.414 259.473 467.074 258.587 467.074 257.479V257.288C467.074 256.545 467.218 255.882 467.505 255.299C467.792 254.711 468.198 254.26 468.722 253.945C469.25 253.626 469.852 253.467 470.526 253.467C471.538 253.467 472.333 253.786 472.912 254.424C473.495 255.062 473.787 255.966 473.787 257.138V257.944H469.077C469.141 258.427 469.332 258.815 469.651 259.106C469.975 259.398 470.383 259.544 470.875 259.544C471.636 259.544 472.231 259.268 472.659 258.717L473.63 259.804C473.334 260.223 472.933 260.551 472.427 260.788C471.921 261.021 471.36 261.137 470.745 261.137ZM470.52 255.066C470.128 255.066 469.809 255.199 469.562 255.463C469.321 255.727 469.166 256.105 469.098 256.598H471.846V256.44C471.837 256.003 471.718 255.666 471.49 255.429C471.262 255.187 470.939 255.066 470.52 255.066ZM479.071 255.456C478.802 255.42 478.565 255.401 478.36 255.401C477.613 255.401 477.123 255.654 476.891 256.16V261H474.915V253.604H476.781L476.836 254.485C477.232 253.806 477.782 253.467 478.483 253.467C478.702 253.467 478.907 253.496 479.099 253.556L479.071 255.456ZM482.968 259.544C483.332 259.544 483.629 259.444 483.856 259.243C484.084 259.043 484.203 258.776 484.212 258.443H486.064C486.06 258.945 485.923 259.405 485.654 259.824C485.385 260.239 485.016 260.562 484.547 260.795C484.082 261.023 483.567 261.137 483.002 261.137C481.945 261.137 481.111 260.802 480.5 260.132C479.889 259.457 479.584 258.528 479.584 257.343V257.213C479.584 256.074 479.887 255.164 480.493 254.485C481.099 253.806 481.931 253.467 482.988 253.467C483.913 253.467 484.654 253.731 485.21 254.26C485.771 254.784 486.055 255.483 486.064 256.358H484.212C484.203 255.976 484.084 255.666 483.856 255.429C483.629 255.187 483.328 255.066 482.954 255.066C482.494 255.066 482.145 255.235 481.908 255.572C481.676 255.905 481.56 256.447 481.56 257.199V257.404C481.56 258.165 481.676 258.712 481.908 259.045C482.141 259.378 482.494 259.544 482.968 259.544ZM489.277 261H487.295V253.604H489.277V261ZM487.179 251.689C487.179 251.393 487.277 251.149 487.473 250.958C487.673 250.767 487.944 250.671 488.286 250.671C488.623 250.671 488.892 250.767 489.093 250.958C489.293 251.149 489.394 251.393 489.394 251.689C489.394 251.99 489.291 252.236 489.086 252.428C488.885 252.619 488.619 252.715 488.286 252.715C487.953 252.715 487.685 252.619 487.479 252.428C487.279 252.236 487.179 251.99 487.179 251.689ZM493.276 251.785V253.604H494.541V255.053H493.276V258.744C493.276 259.018 493.329 259.214 493.434 259.332C493.538 259.451 493.739 259.51 494.035 259.51C494.254 259.51 494.448 259.494 494.616 259.462V260.959C494.229 261.077 493.83 261.137 493.42 261.137C492.035 261.137 491.328 260.437 491.301 259.038V255.053H490.221V253.604H491.301V251.785H493.276ZM499.928 261C499.837 260.822 499.771 260.601 499.729 260.337C499.251 260.87 498.629 261.137 497.863 261.137C497.139 261.137 496.537 260.927 496.059 260.508C495.585 260.089 495.348 259.56 495.348 258.922C495.348 258.138 495.637 257.536 496.216 257.117C496.799 256.698 497.64 256.486 498.738 256.481H499.647V256.058C499.647 255.716 499.559 255.442 499.381 255.237C499.208 255.032 498.932 254.93 498.554 254.93C498.221 254.93 497.959 255.009 497.768 255.169C497.581 255.328 497.487 255.547 497.487 255.825H495.512C495.512 255.397 495.644 255 495.908 254.636C496.173 254.271 496.546 253.986 497.029 253.781C497.512 253.572 498.055 253.467 498.656 253.467C499.568 253.467 500.29 253.697 500.823 254.157C501.361 254.613 501.63 255.256 501.63 256.085V259.291C501.634 259.993 501.732 260.524 501.924 260.884V261H499.928ZM498.294 259.626C498.586 259.626 498.854 259.562 499.101 259.435C499.347 259.302 499.529 259.127 499.647 258.908V257.637H498.909C497.92 257.637 497.394 257.979 497.33 258.662L497.323 258.778C497.323 259.024 497.41 259.227 497.583 259.387C497.756 259.546 497.993 259.626 498.294 259.626ZM505.513 251.785V253.604H506.777V255.053H505.513V258.744C505.513 259.018 505.565 259.214 505.67 259.332C505.775 259.451 505.975 259.51 506.271 259.51C506.49 259.51 506.684 259.494 506.853 259.462V260.959C506.465 261.077 506.066 261.137 505.656 261.137C504.271 261.137 503.564 260.437 503.537 259.038V255.053H502.457V253.604H503.537V251.785H505.513ZM509.963 261H507.98V253.604H509.963V261ZM507.864 251.689C507.864 251.393 507.962 251.149 508.158 250.958C508.359 250.767 508.63 250.671 508.972 250.671C509.309 250.671 509.578 250.767 509.778 250.958C509.979 251.149 510.079 251.393 510.079 251.689C510.079 251.99 509.977 252.236 509.771 252.428C509.571 252.619 509.304 252.715 508.972 252.715C508.639 252.715 508.37 252.619 508.165 252.428C507.965 252.236 507.864 251.99 507.864 251.689ZM511.289 257.233C511.289 256.5 511.43 255.846 511.713 255.271C511.995 254.697 512.401 254.253 512.93 253.938C513.463 253.624 514.08 253.467 514.782 253.467C515.78 253.467 516.594 253.772 517.223 254.383C517.856 254.993 518.209 255.823 518.282 256.871L518.296 257.377C518.296 258.512 517.979 259.423 517.346 260.111C516.712 260.795 515.862 261.137 514.796 261.137C513.729 261.137 512.877 260.795 512.239 260.111C511.606 259.428 511.289 258.498 511.289 257.322V257.233ZM513.265 257.377C513.265 258.079 513.397 258.617 513.661 258.99C513.925 259.359 514.304 259.544 514.796 259.544C515.274 259.544 515.648 259.362 515.917 258.997C516.186 258.628 516.32 258.04 516.32 257.233C516.32 256.545 516.186 256.012 515.917 255.634C515.648 255.256 515.27 255.066 514.782 255.066C514.299 255.066 513.925 255.256 513.661 255.634C513.397 256.007 513.265 256.589 513.265 257.377ZM521.331 253.604L521.393 254.458C521.921 253.797 522.63 253.467 523.519 253.467C524.302 253.467 524.886 253.697 525.269 254.157C525.651 254.618 525.847 255.306 525.856 256.222V261H523.881V256.27C523.881 255.85 523.79 255.547 523.607 255.36C523.425 255.169 523.122 255.073 522.698 255.073C522.142 255.073 521.725 255.31 521.447 255.784V261H519.472V253.604H521.331ZM535.276 260.248C534.789 260.84 534.114 261.137 533.253 261.137C532.46 261.137 531.854 260.909 531.435 260.453C531.02 259.997 530.808 259.33 530.799 258.45V253.604H532.774V258.382C532.774 259.152 533.125 259.537 533.827 259.537C534.497 259.537 534.957 259.305 535.208 258.84V253.604H537.19V261H535.331L535.276 260.248ZM540.766 261H538.783V250.5H540.766V261ZM544.484 261H542.502V250.5H544.484V261ZM550.404 261C550.313 260.822 550.247 260.601 550.206 260.337C549.728 260.87 549.105 261.137 548.34 261.137C547.615 261.137 547.014 260.927 546.535 260.508C546.061 260.089 545.824 259.56 545.824 258.922C545.824 258.138 546.114 257.536 546.692 257.117C547.276 256.698 548.117 256.486 549.215 256.481H550.124V256.058C550.124 255.716 550.035 255.442 549.857 255.237C549.684 255.032 549.409 254.93 549.03 254.93C548.698 254.93 548.436 255.009 548.244 255.169C548.057 255.328 547.964 255.547 547.964 255.825H545.988C545.988 255.397 546.12 255 546.385 254.636C546.649 254.271 547.023 253.986 547.506 253.781C547.989 253.572 548.531 253.467 549.133 253.467C550.044 253.467 550.767 253.697 551.3 254.157C551.838 254.613 552.106 255.256 552.106 256.085V259.291C552.111 259.993 552.209 260.524 552.4 260.884V261H550.404ZM548.771 259.626C549.062 259.626 549.331 259.562 549.577 259.435C549.823 259.302 550.006 259.127 550.124 258.908V257.637H549.386C548.397 257.637 547.87 257.979 547.807 258.662L547.8 258.778C547.8 259.024 547.886 259.227 548.06 259.387C548.233 259.546 548.47 259.626 548.771 259.626ZM555.477 253.604L555.538 254.431C556.062 253.788 556.771 253.467 557.664 253.467C558.617 253.467 559.271 253.843 559.626 254.595C560.146 253.843 560.886 253.467 561.848 253.467C562.65 253.467 563.247 253.701 563.639 254.171C564.031 254.636 564.227 255.338 564.227 256.276V261H562.244V256.283C562.244 255.864 562.162 255.559 561.998 255.367C561.834 255.171 561.545 255.073 561.13 255.073C560.537 255.073 560.127 255.356 559.899 255.921L559.906 261H557.931V256.29C557.931 255.862 557.846 255.552 557.678 255.36C557.509 255.169 557.222 255.073 556.816 255.073C556.256 255.073 555.85 255.306 555.6 255.771V261H553.624V253.604H555.477ZM568.827 259.544C569.192 259.544 569.488 259.444 569.716 259.243C569.944 259.043 570.062 258.776 570.071 258.443H571.924C571.919 258.945 571.783 259.405 571.514 259.824C571.245 260.239 570.876 260.562 570.406 260.795C569.941 261.023 569.426 261.137 568.861 261.137C567.804 261.137 566.97 260.802 566.359 260.132C565.749 259.457 565.443 258.528 565.443 257.343V257.213C565.443 256.074 565.746 255.164 566.353 254.485C566.959 253.806 567.79 253.467 568.848 253.467C569.773 253.467 570.513 253.731 571.069 254.26C571.63 254.784 571.915 255.483 571.924 256.358H570.071C570.062 255.976 569.944 255.666 569.716 255.429C569.488 255.187 569.187 255.066 568.813 255.066C568.353 255.066 568.005 255.235 567.768 255.572C567.535 255.905 567.419 256.447 567.419 257.199V257.404C567.419 258.165 567.535 258.712 567.768 259.045C568 259.378 568.353 259.544 568.827 259.544ZM572.744 257.233C572.744 256.5 572.885 255.846 573.168 255.271C573.451 254.697 573.856 254.253 574.385 253.938C574.918 253.624 575.535 253.467 576.237 253.467C577.235 253.467 578.049 253.772 578.678 254.383C579.311 254.993 579.664 255.823 579.737 256.871L579.751 257.377C579.751 258.512 579.434 259.423 578.801 260.111C578.167 260.795 577.317 261.137 576.251 261.137C575.185 261.137 574.332 260.795 573.694 260.111C573.061 259.428 572.744 258.498 572.744 257.322V257.233ZM574.72 257.377C574.72 258.079 574.852 258.617 575.116 258.99C575.381 259.359 575.759 259.544 576.251 259.544C576.729 259.544 577.103 259.362 577.372 258.997C577.641 258.628 577.775 258.04 577.775 257.233C577.775 256.545 577.641 256.012 577.372 255.634C577.103 255.256 576.725 255.066 576.237 255.066C575.754 255.066 575.381 255.256 575.116 255.634C574.852 256.007 574.72 256.589 574.72 257.377ZM402.844 277H400.861V266.5H402.844V277ZM408.764 277C408.673 276.822 408.606 276.601 408.565 276.337C408.087 276.87 407.465 277.137 406.699 277.137C405.975 277.137 405.373 276.927 404.895 276.508C404.421 276.089 404.184 275.56 404.184 274.922C404.184 274.138 404.473 273.536 405.052 273.117C405.635 272.698 406.476 272.486 407.574 272.481H408.483V272.058C408.483 271.716 408.395 271.442 408.217 271.237C408.044 271.032 407.768 270.93 407.39 270.93C407.057 270.93 406.795 271.009 406.604 271.169C406.417 271.328 406.323 271.547 406.323 271.825H404.348C404.348 271.397 404.48 271 404.744 270.636C405.008 270.271 405.382 269.986 405.865 269.781C406.348 269.572 406.891 269.467 407.492 269.467C408.404 269.467 409.126 269.697 409.659 270.157C410.197 270.613 410.466 271.256 410.466 272.085V275.291C410.47 275.993 410.568 276.524 410.76 276.884V277H408.764ZM407.13 275.626C407.422 275.626 407.69 275.562 407.937 275.435C408.183 275.302 408.365 275.127 408.483 274.908V273.637H407.745C406.756 273.637 406.23 273.979 406.166 274.662L406.159 274.778C406.159 275.024 406.246 275.227 406.419 275.387C406.592 275.546 406.829 275.626 407.13 275.626ZM418.648 273.37C418.648 274.555 418.396 275.48 417.89 276.146C417.384 276.806 416.677 277.137 415.771 277.137C414.968 277.137 414.328 276.829 413.85 276.214L413.761 277H411.983V266.5H413.959V270.267C414.415 269.733 415.014 269.467 415.757 269.467C416.659 269.467 417.366 269.799 417.876 270.465C418.391 271.126 418.648 272.058 418.648 273.261V273.37ZM416.673 273.227C416.673 272.479 416.554 271.935 416.317 271.593C416.08 271.246 415.727 271.073 415.258 271.073C414.629 271.073 414.196 271.331 413.959 271.846V274.765C414.201 275.284 414.638 275.544 415.271 275.544C415.91 275.544 416.329 275.229 416.529 274.601C416.625 274.3 416.673 273.842 416.673 273.227ZM419.564 273.233C419.564 272.5 419.706 271.846 419.988 271.271C420.271 270.697 420.676 270.253 421.205 269.938C421.738 269.624 422.356 269.467 423.058 269.467C424.056 269.467 424.869 269.772 425.498 270.383C426.132 270.993 426.485 271.823 426.558 272.871L426.571 273.377C426.571 274.512 426.255 275.423 425.621 276.111C424.988 276.795 424.138 277.137 423.071 277.137C422.005 277.137 421.153 276.795 420.515 276.111C419.881 275.428 419.564 274.498 419.564 273.322V273.233ZM421.54 273.377C421.54 274.079 421.672 274.617 421.937 274.99C422.201 275.359 422.579 275.544 423.071 275.544C423.55 275.544 423.924 275.362 424.192 274.997C424.461 274.628 424.596 274.04 424.596 273.233C424.596 272.545 424.461 272.012 424.192 271.634C423.924 271.256 423.545 271.066 423.058 271.066C422.575 271.066 422.201 271.256 421.937 271.634C421.672 272.007 421.54 272.589 421.54 273.377ZM431.944 271.456C431.675 271.42 431.438 271.401 431.233 271.401C430.486 271.401 429.996 271.654 429.764 272.16V277H427.788V269.604H429.654L429.709 270.485C430.105 269.806 430.655 269.467 431.356 269.467C431.575 269.467 431.78 269.496 431.972 269.556L431.944 271.456ZM434.986 277H433.004V269.604H434.986V277ZM432.888 267.689C432.888 267.393 432.986 267.149 433.182 266.958C433.382 266.767 433.653 266.671 433.995 266.671C434.332 266.671 434.601 266.767 434.802 266.958C435.002 267.149 435.103 267.393 435.103 267.689C435.103 267.99 435 268.236 434.795 268.428C434.594 268.619 434.328 268.715 433.995 268.715C433.662 268.715 433.394 268.619 433.188 268.428C432.988 268.236 432.888 267.99 432.888 267.689ZM440.626 274.956C440.626 274.715 440.505 274.525 440.264 274.389C440.027 274.247 439.644 274.122 439.115 274.013C437.356 273.644 436.477 272.896 436.477 271.771C436.477 271.114 436.748 270.567 437.29 270.13C437.837 269.688 438.55 269.467 439.43 269.467C440.368 269.467 441.118 269.688 441.679 270.13C442.244 270.572 442.526 271.146 442.526 271.853H440.551C440.551 271.57 440.46 271.338 440.277 271.155C440.095 270.968 439.81 270.875 439.423 270.875C439.09 270.875 438.833 270.95 438.65 271.101C438.468 271.251 438.377 271.442 438.377 271.675C438.377 271.894 438.479 272.071 438.685 272.208C438.894 272.34 439.245 272.456 439.737 272.557C440.229 272.652 440.644 272.762 440.981 272.885C442.025 273.268 442.547 273.931 442.547 274.874C442.547 275.549 442.257 276.095 441.679 276.515C441.1 276.929 440.353 277.137 439.437 277.137C438.817 277.137 438.265 277.027 437.782 276.809C437.304 276.585 436.928 276.282 436.654 275.899C436.381 275.512 436.244 275.095 436.244 274.648H438.117C438.135 274.999 438.265 275.268 438.507 275.455C438.748 275.642 439.072 275.735 439.478 275.735C439.856 275.735 440.141 275.665 440.332 275.523C440.528 275.378 440.626 275.188 440.626 274.956ZM449.13 269.604L449.191 270.458C449.72 269.797 450.429 269.467 451.317 269.467C452.101 269.467 452.685 269.697 453.067 270.157C453.45 270.618 453.646 271.306 453.655 272.222V277H451.68V272.27C451.68 271.85 451.589 271.547 451.406 271.36C451.224 271.169 450.921 271.073 450.497 271.073C449.941 271.073 449.524 271.31 449.246 271.784V277H447.271V269.604H449.13ZM457.244 277H455.262V269.604H457.244V277ZM455.146 267.689C455.146 267.393 455.243 267.149 455.439 266.958C455.64 266.767 455.911 266.671 456.253 266.671C456.59 266.671 456.859 266.767 457.06 266.958C457.26 267.149 457.36 267.393 457.36 267.689C457.36 267.99 457.258 268.236 457.053 268.428C456.852 268.619 456.586 268.715 456.253 268.715C455.92 268.715 455.651 268.619 455.446 268.428C455.246 268.236 455.146 267.99 455.146 267.689ZM462.884 274.956C462.884 274.715 462.763 274.525 462.521 274.389C462.285 274.247 461.902 274.122 461.373 274.013C459.614 273.644 458.734 272.896 458.734 271.771C458.734 271.114 459.006 270.567 459.548 270.13C460.095 269.688 460.808 269.467 461.688 269.467C462.626 269.467 463.376 269.688 463.937 270.13C464.502 270.572 464.784 271.146 464.784 271.853H462.809C462.809 271.57 462.717 271.338 462.535 271.155C462.353 270.968 462.068 270.875 461.681 270.875C461.348 270.875 461.09 270.95 460.908 271.101C460.726 271.251 460.635 271.442 460.635 271.675C460.635 271.894 460.737 272.071 460.942 272.208C461.152 272.34 461.503 272.456 461.995 272.557C462.487 272.652 462.902 272.762 463.239 272.885C464.283 273.268 464.805 273.931 464.805 274.874C464.805 275.549 464.515 276.095 463.937 276.515C463.358 276.929 462.61 277.137 461.694 277.137C461.075 277.137 460.523 277.027 460.04 276.809C459.562 276.585 459.186 276.282 458.912 275.899C458.639 275.512 458.502 275.095 458.502 274.648H460.375C460.393 274.999 460.523 275.268 460.765 275.455C461.006 275.642 461.33 275.735 461.735 275.735C462.114 275.735 462.398 275.665 462.59 275.523C462.786 275.378 462.884 275.188 462.884 274.956ZM468.168 277H466.186V269.604H468.168V277ZM466.069 267.689C466.069 267.393 466.167 267.149 466.363 266.958C466.564 266.767 466.835 266.671 467.177 266.671C467.514 266.671 467.783 266.767 467.983 266.958C468.184 267.149 468.284 267.393 468.284 267.689C468.284 267.99 468.182 268.236 467.977 268.428C467.776 268.619 467.509 268.715 467.177 268.715C466.844 268.715 466.575 268.619 466.37 268.428C466.17 268.236 466.069 267.99 466.069 267.689ZM477.718 276.248C477.23 276.84 476.556 277.137 475.694 277.137C474.901 277.137 474.295 276.909 473.876 276.453C473.461 275.997 473.249 275.33 473.24 274.45V269.604H475.216V274.382C475.216 275.152 475.567 275.537 476.269 275.537C476.938 275.537 477.399 275.305 477.649 274.84V269.604H479.632V277H477.772L477.718 276.248ZM483.487 267.785V269.604H484.752V271.053H483.487V274.744C483.487 275.018 483.54 275.214 483.645 275.332C483.749 275.451 483.95 275.51 484.246 275.51C484.465 275.51 484.659 275.494 484.827 275.462V276.959C484.44 277.077 484.041 277.137 483.631 277.137C482.245 277.137 481.539 276.437 481.512 275.038V271.053H480.432V269.604H481.512V267.785H483.487ZM493.625 277C493.534 276.822 493.468 276.601 493.427 276.337C492.948 276.87 492.326 277.137 491.561 277.137C490.836 277.137 490.234 276.927 489.756 276.508C489.282 276.089 489.045 275.56 489.045 274.922C489.045 274.138 489.334 273.536 489.913 273.117C490.496 272.698 491.337 272.486 492.436 272.481H493.345V272.058C493.345 271.716 493.256 271.442 493.078 271.237C492.905 271.032 492.629 270.93 492.251 270.93C491.918 270.93 491.656 271.009 491.465 271.169C491.278 271.328 491.185 271.547 491.185 271.825H489.209C489.209 271.397 489.341 271 489.605 270.636C489.87 270.271 490.243 269.986 490.727 269.781C491.21 269.572 491.752 269.467 492.354 269.467C493.265 269.467 493.987 269.697 494.521 270.157C495.058 270.613 495.327 271.256 495.327 272.085V275.291C495.332 275.993 495.43 276.524 495.621 276.884V277H493.625ZM491.991 275.626C492.283 275.626 492.552 275.562 492.798 275.435C493.044 275.302 493.226 275.127 493.345 274.908V273.637H492.606C491.618 273.637 491.091 273.979 491.027 274.662L491.021 274.778C491.021 275.024 491.107 275.227 491.28 275.387C491.453 275.546 491.69 275.626 491.991 275.626ZM498.93 277H496.947V266.5H498.93V277ZM502.648 277H500.666V269.604H502.648V277ZM500.55 267.689C500.55 267.393 500.648 267.149 500.844 266.958C501.044 266.767 501.315 266.671 501.657 266.671C501.994 266.671 502.263 266.767 502.464 266.958C502.664 267.149 502.765 267.393 502.765 267.689C502.765 267.99 502.662 268.236 502.457 268.428C502.257 268.619 501.99 268.715 501.657 268.715C501.325 268.715 501.056 268.619 500.851 268.428C500.65 268.236 500.55 267.99 500.55 267.689ZM503.975 273.233C503.975 272.071 504.232 271.153 504.747 270.479C505.267 269.804 505.978 269.467 506.88 269.467C507.673 269.467 508.304 269.77 508.773 270.376L508.903 269.604H510.64V279.844H508.657V276.364C508.201 276.879 507.604 277.137 506.866 277.137C505.987 277.137 505.285 276.795 504.761 276.111C504.237 275.428 503.975 274.468 503.975 273.233ZM505.95 273.377C505.95 274.083 506.073 274.621 506.319 274.99C506.57 275.359 506.921 275.544 507.372 275.544C507.978 275.544 508.407 275.302 508.657 274.819V271.764C508.411 271.299 507.987 271.066 507.386 271.066C506.93 271.066 506.577 271.251 506.326 271.62C506.076 271.989 505.95 272.575 505.95 273.377ZM516.628 276.248C516.14 276.84 515.466 277.137 514.604 277.137C513.812 277.137 513.205 276.909 512.786 276.453C512.371 275.997 512.16 275.33 512.15 274.45V269.604H514.126V274.382C514.126 275.152 514.477 275.537 515.179 275.537C515.849 275.537 516.309 275.305 516.56 274.84V269.604H518.542V277H516.683L516.628 276.248ZM522.117 277H520.135V269.604H522.117V277ZM520.019 267.689C520.019 267.393 520.117 267.149 520.312 266.958C520.513 266.767 520.784 266.671 521.126 266.671C521.463 266.671 521.732 266.767 521.933 266.958C522.133 267.149 522.233 267.393 522.233 267.689C522.233 267.99 522.131 268.236 521.926 268.428C521.725 268.619 521.459 268.715 521.126 268.715C520.793 268.715 520.524 268.619 520.319 268.428C520.119 268.236 520.019 267.99 520.019 267.689ZM530.409 273.37C530.409 274.509 530.149 275.423 529.63 276.111C529.115 276.795 528.418 277.137 527.538 277.137C526.791 277.137 526.187 276.877 525.727 276.357V279.844H523.751V269.604H525.583L525.651 270.328C526.13 269.754 526.754 269.467 527.524 269.467C528.436 269.467 529.145 269.804 529.65 270.479C530.156 271.153 530.409 272.083 530.409 273.268V273.37ZM528.434 273.227C528.434 272.538 528.311 272.007 528.064 271.634C527.823 271.26 527.47 271.073 527.005 271.073C526.385 271.073 525.959 271.31 525.727 271.784V274.812C525.968 275.3 526.399 275.544 527.019 275.544C527.962 275.544 528.434 274.771 528.434 273.227ZM538.53 277.137C537.446 277.137 536.562 276.804 535.878 276.139C535.199 275.473 534.859 274.587 534.859 273.479V273.288C534.859 272.545 535.003 271.882 535.29 271.299C535.577 270.711 535.983 270.26 536.507 269.945C537.035 269.626 537.637 269.467 538.312 269.467C539.323 269.467 540.118 269.786 540.697 270.424C541.281 271.062 541.572 271.966 541.572 273.138V273.944H536.862C536.926 274.427 537.118 274.815 537.437 275.106C537.76 275.398 538.168 275.544 538.66 275.544C539.421 275.544 540.016 275.268 540.444 274.717L541.415 275.804C541.119 276.223 540.718 276.551 540.212 276.788C539.706 277.021 539.146 277.137 538.53 277.137ZM538.305 271.066C537.913 271.066 537.594 271.199 537.348 271.463C537.106 271.727 536.951 272.105 536.883 272.598H539.631V272.44C539.622 272.003 539.503 271.666 539.275 271.429C539.048 271.187 538.724 271.066 538.305 271.066ZM545.517 271.812L546.761 269.604H548.873L546.768 273.227L548.962 277H546.843L545.523 274.676L544.211 277H542.085L544.279 273.227L542.181 269.604H544.3L545.517 271.812ZM556.714 277.137C555.629 277.137 554.745 276.804 554.062 276.139C553.382 275.473 553.043 274.587 553.043 273.479V273.288C553.043 272.545 553.187 271.882 553.474 271.299C553.761 270.711 554.166 270.26 554.69 269.945C555.219 269.626 555.821 269.467 556.495 269.467C557.507 269.467 558.302 269.786 558.881 270.424C559.464 271.062 559.756 271.966 559.756 273.138V273.944H555.046C555.11 274.427 555.301 274.815 555.62 275.106C555.944 275.398 556.352 275.544 556.844 275.544C557.605 275.544 558.2 275.268 558.628 274.717L559.599 275.804C559.302 276.223 558.901 276.551 558.396 276.788C557.89 277.021 557.329 277.137 556.714 277.137ZM556.488 271.066C556.096 271.066 555.777 271.199 555.531 271.463C555.29 271.727 555.135 272.105 555.066 272.598H557.814V272.44C557.805 272.003 557.687 271.666 557.459 271.429C557.231 271.187 556.908 271.066 556.488 271.066ZM565.17 277C565.079 276.822 565.013 276.601 564.972 276.337C564.493 276.87 563.871 277.137 563.105 277.137C562.381 277.137 561.779 276.927 561.301 276.508C560.827 276.089 560.59 275.56 560.59 274.922C560.59 274.138 560.879 273.536 561.458 273.117C562.041 272.698 562.882 272.486 563.98 272.481H564.89V272.058C564.89 271.716 564.801 271.442 564.623 271.237C564.45 271.032 564.174 270.93 563.796 270.93C563.463 270.93 563.201 271.009 563.01 271.169C562.823 271.328 562.729 271.547 562.729 271.825H560.754C560.754 271.397 560.886 271 561.15 270.636C561.415 270.271 561.788 269.986 562.271 269.781C562.755 269.572 563.297 269.467 563.898 269.467C564.81 269.467 565.532 269.697 566.065 270.157C566.603 270.613 566.872 271.256 566.872 272.085V275.291C566.877 275.993 566.975 276.524 567.166 276.884V277H565.17ZM563.536 275.626C563.828 275.626 564.097 275.562 564.343 275.435C564.589 275.302 564.771 275.127 564.89 274.908V273.637H564.151C563.162 273.637 562.636 273.979 562.572 274.662L562.565 274.778C562.565 275.024 562.652 275.227 562.825 275.387C562.998 275.546 563.235 275.626 563.536 275.626ZM403.835 291.544C404.2 291.544 404.496 291.444 404.724 291.243C404.951 291.043 405.07 290.776 405.079 290.443H406.932C406.927 290.945 406.79 291.405 406.521 291.824C406.253 292.239 405.883 292.562 405.414 292.795C404.949 293.023 404.434 293.137 403.869 293.137C402.812 293.137 401.978 292.802 401.367 292.132C400.757 291.457 400.451 290.528 400.451 289.343V289.213C400.451 288.074 400.754 287.164 401.36 286.485C401.966 285.806 402.798 285.467 403.855 285.467C404.781 285.467 405.521 285.731 406.077 286.26C406.638 286.784 406.923 287.483 406.932 288.358H405.079C405.07 287.976 404.951 287.666 404.724 287.429C404.496 287.187 404.195 287.066 403.821 287.066C403.361 287.066 403.012 287.235 402.775 287.572C402.543 287.905 402.427 288.447 402.427 289.199V289.404C402.427 290.165 402.543 290.712 402.775 291.045C403.008 291.378 403.361 291.544 403.835 291.544ZM407.752 289.233C407.752 288.5 407.893 287.846 408.176 287.271C408.458 286.697 408.864 286.253 409.393 285.938C409.926 285.624 410.543 285.467 411.245 285.467C412.243 285.467 413.057 285.772 413.686 286.383C414.319 286.993 414.672 287.823 414.745 288.871L414.759 289.377C414.759 290.512 414.442 291.423 413.809 292.111C413.175 292.795 412.325 293.137 411.259 293.137C410.192 293.137 409.34 292.795 408.702 292.111C408.069 291.428 407.752 290.498 407.752 289.322V289.233ZM409.728 289.377C409.728 290.079 409.86 290.617 410.124 290.99C410.388 291.359 410.767 291.544 411.259 291.544C411.737 291.544 412.111 291.362 412.38 290.997C412.649 290.628 412.783 290.04 412.783 289.233C412.783 288.545 412.649 288.012 412.38 287.634C412.111 287.256 411.733 287.066 411.245 287.066C410.762 287.066 410.388 287.256 410.124 287.634C409.86 288.007 409.728 288.589 409.728 289.377ZM417.828 285.604L417.89 286.431C418.414 285.788 419.122 285.467 420.016 285.467C420.968 285.467 421.622 285.843 421.978 286.595C422.497 285.843 423.238 285.467 424.199 285.467C425.001 285.467 425.598 285.701 425.99 286.171C426.382 286.636 426.578 287.338 426.578 288.276V293H424.596V288.283C424.596 287.864 424.514 287.559 424.35 287.367C424.186 287.171 423.896 287.073 423.481 287.073C422.889 287.073 422.479 287.356 422.251 287.921L422.258 293H420.282V288.29C420.282 287.862 420.198 287.552 420.029 287.36C419.861 287.169 419.574 287.073 419.168 287.073C418.607 287.073 418.202 287.306 417.951 287.771V293H415.976V285.604H417.828ZM429.955 285.604L430.017 286.431C430.541 285.788 431.249 285.467 432.143 285.467C433.095 285.467 433.749 285.843 434.104 286.595C434.624 285.843 435.365 285.467 436.326 285.467C437.128 285.467 437.725 285.701 438.117 286.171C438.509 286.636 438.705 287.338 438.705 288.276V293H436.723V288.283C436.723 287.864 436.641 287.559 436.477 287.367C436.312 287.171 436.023 287.073 435.608 287.073C435.016 287.073 434.606 287.356 434.378 287.921L434.385 293H432.409V288.29C432.409 287.862 432.325 287.552 432.156 287.36C431.988 287.169 431.701 287.073 431.295 287.073C430.734 287.073 430.329 287.306 430.078 287.771V293H428.103V285.604H429.955ZM439.922 289.233C439.922 288.5 440.063 287.846 440.346 287.271C440.628 286.697 441.034 286.253 441.562 285.938C442.096 285.624 442.713 285.467 443.415 285.467C444.413 285.467 445.227 285.772 445.855 286.383C446.489 286.993 446.842 287.823 446.915 288.871L446.929 289.377C446.929 290.512 446.612 291.423 445.979 292.111C445.345 292.795 444.495 293.137 443.429 293.137C442.362 293.137 441.51 292.795 440.872 292.111C440.239 291.428 439.922 290.498 439.922 289.322V289.233ZM441.897 289.377C441.897 290.079 442.03 290.617 442.294 290.99C442.558 291.359 442.937 291.544 443.429 291.544C443.907 291.544 444.281 291.362 444.55 290.997C444.819 290.628 444.953 290.04 444.953 289.233C444.953 288.545 444.819 288.012 444.55 287.634C444.281 287.256 443.903 287.066 443.415 287.066C442.932 287.066 442.558 287.256 442.294 287.634C442.03 288.007 441.897 288.589 441.897 289.377ZM447.838 289.247C447.838 288.094 448.095 287.176 448.61 286.492C449.13 285.809 449.839 285.467 450.736 285.467C451.456 285.467 452.051 285.736 452.521 286.273V282.5H454.503V293H452.719L452.623 292.214C452.131 292.829 451.497 293.137 450.723 293.137C449.852 293.137 449.153 292.795 448.624 292.111C448.1 291.423 447.838 290.468 447.838 289.247ZM449.813 289.391C449.813 290.083 449.934 290.614 450.176 290.983C450.417 291.353 450.768 291.537 451.229 291.537C451.839 291.537 452.27 291.28 452.521 290.765V287.846C452.274 287.331 451.848 287.073 451.242 287.073C450.29 287.073 449.813 287.846 449.813 289.391ZM455.727 289.233C455.727 288.5 455.868 287.846 456.15 287.271C456.433 286.697 456.839 286.253 457.367 285.938C457.9 285.624 458.518 285.467 459.22 285.467C460.218 285.467 461.031 285.772 461.66 286.383C462.294 286.993 462.647 287.823 462.72 288.871L462.733 289.377C462.733 290.512 462.417 291.423 461.783 292.111C461.15 292.795 460.3 293.137 459.233 293.137C458.167 293.137 457.315 292.795 456.677 292.111C456.043 291.428 455.727 290.498 455.727 289.322V289.233ZM457.702 289.377C457.702 290.079 457.834 290.617 458.099 290.99C458.363 291.359 458.741 291.544 459.233 291.544C459.712 291.544 460.086 291.362 460.354 290.997C460.623 290.628 460.758 290.04 460.758 289.233C460.758 288.545 460.623 288.012 460.354 287.634C460.086 287.256 459.707 287.066 459.22 287.066C458.737 287.066 458.363 287.256 458.099 287.634C457.834 288.007 457.702 288.589 457.702 289.377ZM470.513 291.544C470.877 291.544 471.174 291.444 471.401 291.243C471.629 291.043 471.748 290.776 471.757 290.443H473.609C473.605 290.945 473.468 291.405 473.199 291.824C472.93 292.239 472.561 292.562 472.092 292.795C471.627 293.023 471.112 293.137 470.547 293.137C469.49 293.137 468.656 292.802 468.045 292.132C467.434 291.457 467.129 290.528 467.129 289.343V289.213C467.129 288.074 467.432 287.164 468.038 286.485C468.644 285.806 469.476 285.467 470.533 285.467C471.458 285.467 472.199 285.731 472.755 286.26C473.315 286.784 473.6 287.483 473.609 288.358H471.757C471.748 287.976 471.629 287.666 471.401 287.429C471.174 287.187 470.873 287.066 470.499 287.066C470.039 287.066 469.69 287.235 469.453 287.572C469.221 287.905 469.104 288.447 469.104 289.199V289.404C469.104 290.165 469.221 290.712 469.453 291.045C469.686 291.378 470.039 291.544 470.513 291.544ZM474.43 289.233C474.43 288.5 474.571 287.846 474.854 287.271C475.136 286.697 475.542 286.253 476.07 285.938C476.604 285.624 477.221 285.467 477.923 285.467C478.921 285.467 479.734 285.772 480.363 286.383C480.997 286.993 481.35 287.823 481.423 288.871L481.437 289.377C481.437 290.512 481.12 291.423 480.486 292.111C479.853 292.795 479.003 293.137 477.937 293.137C476.87 293.137 476.018 292.795 475.38 292.111C474.746 291.428 474.43 290.498 474.43 289.322V289.233ZM476.405 289.377C476.405 290.079 476.537 290.617 476.802 290.99C477.066 291.359 477.444 291.544 477.937 291.544C478.415 291.544 478.789 291.362 479.058 290.997C479.326 290.628 479.461 290.04 479.461 289.233C479.461 288.545 479.326 288.012 479.058 287.634C478.789 287.256 478.41 287.066 477.923 287.066C477.44 287.066 477.066 287.256 476.802 287.634C476.537 288.007 476.405 288.589 476.405 289.377ZM484.472 285.604L484.533 286.458C485.062 285.797 485.771 285.467 486.659 285.467C487.443 285.467 488.026 285.697 488.409 286.157C488.792 286.618 488.988 287.306 488.997 288.222V293H487.021V288.27C487.021 287.85 486.93 287.547 486.748 287.36C486.566 287.169 486.263 287.073 485.839 287.073C485.283 287.073 484.866 287.31 484.588 287.784V293H482.612V285.604H484.472ZM494.507 290.956C494.507 290.715 494.386 290.525 494.145 290.389C493.908 290.247 493.525 290.122 492.996 290.013C491.237 289.644 490.357 288.896 490.357 287.771C490.357 287.114 490.629 286.567 491.171 286.13C491.718 285.688 492.431 285.467 493.311 285.467C494.249 285.467 494.999 285.688 495.56 286.13C496.125 286.572 496.407 287.146 496.407 287.853H494.432C494.432 287.57 494.34 287.338 494.158 287.155C493.976 286.968 493.691 286.875 493.304 286.875C492.971 286.875 492.714 286.95 492.531 287.101C492.349 287.251 492.258 287.442 492.258 287.675C492.258 287.894 492.36 288.071 492.565 288.208C492.775 288.34 493.126 288.456 493.618 288.557C494.11 288.652 494.525 288.762 494.862 288.885C495.906 289.268 496.428 289.931 496.428 290.874C496.428 291.549 496.138 292.095 495.56 292.515C494.981 292.929 494.233 293.137 493.317 293.137C492.698 293.137 492.146 293.027 491.663 292.809C491.185 292.585 490.809 292.282 490.535 291.899C490.262 291.512 490.125 291.095 490.125 290.648H491.998C492.016 290.999 492.146 291.268 492.388 291.455C492.629 291.642 492.953 291.735 493.358 291.735C493.737 291.735 494.021 291.665 494.213 291.523C494.409 291.378 494.507 291.188 494.507 290.956ZM501.11 293.137C500.026 293.137 499.142 292.804 498.458 292.139C497.779 291.473 497.439 290.587 497.439 289.479V289.288C497.439 288.545 497.583 287.882 497.87 287.299C498.157 286.711 498.563 286.26 499.087 285.945C499.616 285.626 500.217 285.467 500.892 285.467C501.903 285.467 502.699 285.786 503.277 286.424C503.861 287.062 504.152 287.966 504.152 289.138V289.944H499.442C499.506 290.427 499.698 290.815 500.017 291.106C500.34 291.398 500.748 291.544 501.24 291.544C502.001 291.544 502.596 291.268 503.024 290.717L503.995 291.804C503.699 292.223 503.298 292.551 502.792 292.788C502.286 293.021 501.726 293.137 501.11 293.137ZM500.885 287.066C500.493 287.066 500.174 287.199 499.928 287.463C499.686 287.727 499.531 288.105 499.463 288.598H502.211V288.44C502.202 288.003 502.083 287.666 501.855 287.429C501.628 287.187 501.304 287.066 500.885 287.066ZM504.973 289.233C504.973 288.071 505.23 287.153 505.745 286.479C506.265 285.804 506.976 285.467 507.878 285.467C508.671 285.467 509.302 285.77 509.771 286.376L509.901 285.604H511.638V295.844H509.655V292.364C509.2 292.879 508.603 293.137 507.864 293.137C506.985 293.137 506.283 292.795 505.759 292.111C505.235 291.428 504.973 290.468 504.973 289.233ZM506.948 289.377C506.948 290.083 507.071 290.621 507.317 290.99C507.568 291.359 507.919 291.544 508.37 291.544C508.976 291.544 509.405 291.302 509.655 290.819V287.764C509.409 287.299 508.985 287.066 508.384 287.066C507.928 287.066 507.575 287.251 507.324 287.62C507.074 287.989 506.948 288.575 506.948 289.377ZM517.626 292.248C517.138 292.84 516.464 293.137 515.603 293.137C514.81 293.137 514.203 292.909 513.784 292.453C513.369 291.997 513.158 291.33 513.148 290.45V285.604H515.124V290.382C515.124 291.152 515.475 291.537 516.177 291.537C516.847 291.537 517.307 291.305 517.558 290.84V285.604H519.54V293H517.681L517.626 292.248ZM525.316 293C525.225 292.822 525.159 292.601 525.118 292.337C524.64 292.87 524.018 293.137 523.252 293.137C522.527 293.137 521.926 292.927 521.447 292.508C520.973 292.089 520.736 291.56 520.736 290.922C520.736 290.138 521.026 289.536 521.604 289.117C522.188 288.698 523.029 288.486 524.127 288.481H525.036V288.058C525.036 287.716 524.947 287.442 524.77 287.237C524.596 287.032 524.321 286.93 523.942 286.93C523.61 286.93 523.348 287.009 523.156 287.169C522.969 287.328 522.876 287.547 522.876 287.825H520.9C520.9 287.397 521.033 287 521.297 286.636C521.561 286.271 521.935 285.986 522.418 285.781C522.901 285.572 523.443 285.467 524.045 285.467C524.956 285.467 525.679 285.697 526.212 286.157C526.75 286.613 527.019 287.256 527.019 288.085V291.291C527.023 291.993 527.121 292.524 527.312 292.884V293H525.316ZM523.683 291.626C523.974 291.626 524.243 291.562 524.489 291.435C524.735 291.302 524.918 291.127 525.036 290.908V289.637H524.298C523.309 289.637 522.783 289.979 522.719 290.662L522.712 290.778C522.712 291.024 522.799 291.227 522.972 291.387C523.145 291.546 523.382 291.626 523.683 291.626ZM530.901 283.785V285.604H532.166V287.053H530.901V290.744C530.901 291.018 530.954 291.214 531.059 291.332C531.163 291.451 531.364 291.51 531.66 291.51C531.879 291.51 532.073 291.494 532.241 291.462V292.959C531.854 293.077 531.455 293.137 531.045 293.137C529.66 293.137 528.953 292.437 528.926 291.038V287.053H527.846V285.604H528.926V283.785H530.901ZM533.369 292.029C533.369 291.715 533.474 291.46 533.684 291.264C533.898 291.068 534.164 290.97 534.483 290.97C534.807 290.97 535.074 291.068 535.283 291.264C535.497 291.46 535.604 291.715 535.604 292.029C535.604 292.339 535.5 292.592 535.29 292.788C535.08 292.979 534.812 293.075 534.483 293.075C534.16 293.075 533.893 292.979 533.684 292.788C533.474 292.592 533.369 292.339 533.369 292.029Z" fill="#9F9F9F"/>
</svg>
