<svg width="213" height="190" viewBox="0 0 213 190" fill="none" xmlns="http://www.w3.org/2000/svg">
<path d="M82.5677 39.0076C84.3237 30.3725 96.6763 30.3725 98.4323 39.0076C99.6612 45.0509 106.946 47.5443 111.61 43.5097L113.45 41.9178C119.795 36.4296 129.033 43.7809 125.144 51.2141C122.316 56.6192 126.701 62.9895 132.758 62.2628L134.212 62.0884C142.389 61.1073 145.717 72.2786 138.336 75.9323C132.9 78.6233 132.9 86.3767 138.336 89.0677C145.717 92.7214 142.389 103.893 134.212 102.912L132.758 102.737C126.701 102.01 122.316 108.381 125.144 113.786C129.033 121.219 119.795 128.57 113.45 123.082L111.61 121.49C106.946 117.456 99.6612 119.949 98.4323 125.992C96.6763 134.627 84.3237 134.627 82.5677 125.992C81.3388 119.949 74.0541 117.456 69.3899 121.49L67.5496 123.082C61.2049 128.57 51.9675 121.219 55.8563 113.786C58.6842 108.381 54.2986 102.01 48.2419 102.737L46.788 102.912C38.6108 103.893 35.2829 92.7214 42.6639 89.0677C48.1003 86.3767 48.1003 78.6233 42.6639 75.9323C35.2829 72.2786 38.6108 61.1073 46.788 62.0884L48.2419 62.2628C54.2986 62.9895 58.6842 56.6192 55.8563 51.2141C51.9675 43.7809 61.2049 36.4296 67.5496 41.9178L69.3899 43.5097C74.0541 47.5443 81.3388 45.0509 82.5677 39.0076Z" fill="#B9F0FC" stroke="#8CD7E7" stroke-width="3"/>
<path d="M107.5 85C107.5 95.2907 99.5934 103.5 90 103.5C80.4066 103.5 72.5 95.2907 72.5 85C72.5 74.7093 80.4066 66.5 90 66.5C99.5934 66.5 107.5 74.7093 107.5 85Z" fill="#B9F0FC" stroke="#86D3E4" stroke-width="3"/>
<path d="M148.591 69.6442L150.432 68.0522C155.507 63.6618 162.946 69.5329 159.815 75.5187C156.415 82.0164 161.789 89.6097 169.019 88.7423C175.71 87.9395 178.494 97.2004 172.402 100.216C166.2 103.286 165.689 112.065 171.655 115.692L172.289 116.078C177.558 119.281 174.643 127.405 168.539 126.529C161.544 125.524 156.352 132.863 159.628 139.125L159.968 139.775C163.06 145.685 155.706 151.51 150.661 147.146L148.591 145.356C143.057 140.568 134.419 143.529 132.962 150.693C131.532 157.727 121.468 157.727 120.038 150.693C118.581 143.529 109.943 140.568 104.409 145.356L102.568 146.948C97.4927 151.338 90.0538 145.467 93.1855 139.481C96.5713 133.01 91.3222 125.377 84.0632 126.248L82.6093 126.422C76.106 127.203 73.4592 118.318 79.3294 115.412C85.8786 112.17 85.8786 102.83 79.3294 99.5879C73.4592 96.6822 76.106 87.7974 82.6093 88.5777L84.0633 88.7521C91.3222 89.6231 96.5713 81.9903 93.1855 75.5187C90.0538 69.5329 97.4927 63.6618 102.568 68.0522L104.409 69.6442C109.943 74.4317 118.581 71.4707 120.038 64.3065C121.468 57.2729 131.532 57.2729 132.962 64.3065C134.419 71.4707 143.057 74.4317 148.591 69.6442Z" fill="#B9F0FC" stroke="#86D3E4" stroke-width="3"/>
<circle cx="127" cy="109" r="14.5" fill="#B9F0FC" stroke="#86D3E4" stroke-width="3"/>
</svg>
