<svg width="156" height="149" viewBox="0 0 156 149" fill="none" xmlns="http://www.w3.org/2000/svg">
<ellipse cx="78" cy="74.5" rx="78" ry="74.5" fill="#B9F0FC" fill-opacity="0.83"/>
<path d="M62.7583 51.36C63.7343 51.568 64.5183 52.056 65.1103 52.824C65.7023 53.576 65.9983 54.44 65.9983 55.416C65.9983 56.824 65.5023 57.944 64.5103 58.776C63.5343 59.592 62.1663 60 60.4063 60H52.5583V43.152H60.1423C61.8543 43.152 63.1903 43.544 64.1503 44.328C65.1263 45.112 65.6143 46.176 65.6143 47.52C65.6143 48.512 65.3503 49.336 64.8223 49.992C64.3103 50.648 63.6223 51.104 62.7583 51.36ZM56.6623 49.968H59.3503C60.0223 49.968 60.5343 49.824 60.8863 49.536C61.2543 49.232 61.4383 48.792 61.4383 48.216C61.4383 47.64 61.2543 47.2 60.8863 46.896C60.5343 46.592 60.0223 46.44 59.3503 46.44H56.6623V49.968ZM59.6863 56.688C60.3743 56.688 60.9023 56.536 61.2703 56.232C61.6543 55.912 61.8463 55.456 61.8463 54.864C61.8463 54.272 61.6463 53.808 61.2463 53.472C60.8623 53.136 60.3263 52.968 59.6383 52.968H56.6623V56.688H59.6863ZM72.4826 42.24V60H68.3786V42.24H72.4826ZM88.6808 46.608V60H84.5768V58.176C84.1608 58.768 83.5928 59.248 82.8728 59.616C82.1688 59.968 81.3848 60.144 80.5208 60.144C79.4968 60.144 78.5928 59.92 77.8088 59.472C77.0248 59.008 76.4168 58.344 75.9848 57.48C75.5528 56.616 75.3368 55.6 75.3368 54.432V46.608H79.4168V53.88C79.4168 54.776 79.6488 55.472 80.1128 55.968C80.5768 56.464 81.2008 56.712 81.9848 56.712C82.7848 56.712 83.4168 56.464 83.8808 55.968C84.3448 55.472 84.5768 54.776 84.5768 53.88V46.608H88.6808ZM104.253 53.088C104.253 53.472 104.229 53.872 104.181 54.288H94.8926C94.9566 55.12 95.2206 55.76 95.6846 56.208C96.1646 56.64 96.7486 56.856 97.4366 56.856C98.4606 56.856 99.1726 56.424 99.5726 55.56H103.941C103.717 56.44 103.309 57.232 102.717 57.936C102.141 58.64 101.413 59.192 100.533 59.592C99.6526 59.992 98.6686 60.192 97.5806 60.192C96.2686 60.192 95.1006 59.912 94.0766 59.352C93.0526 58.792 92.2526 57.992 91.6766 56.952C91.1006 55.912 90.8126 54.696 90.8126 53.304C90.8126 51.912 91.0926 50.696 91.6526 49.656C92.2286 48.616 93.0286 47.816 94.0526 47.256C95.0766 46.696 96.2526 46.416 97.5806 46.416C98.8766 46.416 100.029 46.688 101.037 47.232C102.045 47.776 102.829 48.552 103.389 49.56C103.965 50.568 104.253 51.744 104.253 53.088ZM100.053 52.008C100.053 51.304 99.8126 50.744 99.3326 50.328C98.8526 49.912 98.2526 49.704 97.5326 49.704C96.8446 49.704 96.2606 49.904 95.7806 50.304C95.3166 50.704 95.0286 51.272 94.9166 52.008H100.053ZM52.2376 79.152L46.2616 96H41.1256L35.1496 79.152H39.5176L43.6936 91.872L47.8936 79.152H52.2376ZM56.0168 81.216C55.2968 81.216 54.7048 81.008 54.2408 80.592C53.7928 80.16 53.5688 79.632 53.5688 79.008C53.5688 78.368 53.7928 77.84 54.2408 77.424C54.7048 76.992 55.2968 76.776 56.0168 76.776C56.7208 76.776 57.2968 76.992 57.7448 77.424C58.2088 77.84 58.4408 78.368 58.4408 79.008C58.4408 79.632 58.2088 80.16 57.7448 80.592C57.2968 81.008 56.7208 81.216 56.0168 81.216ZM58.0568 82.608V96H53.9528V82.608H58.0568ZM65.135 78.24V96H61.031V78.24H65.135ZM72.2131 78.24V96H68.1091V78.24H72.2131ZM74.3712 89.28C74.3712 87.904 74.6272 86.696 75.1392 85.656C75.6672 84.616 76.3792 83.816 77.2752 83.256C78.1712 82.696 79.1712 82.416 80.2752 82.416C81.2192 82.416 82.0432 82.608 82.7472 82.992C83.4672 83.376 84.0192 83.88 84.4032 84.504V82.608H88.5072V96H84.4032V94.104C84.0032 94.728 83.4432 95.232 82.7232 95.616C82.0192 96 81.1952 96.192 80.2512 96.192C79.1632 96.192 78.1712 95.912 77.2752 95.352C76.3792 94.776 75.6672 93.968 75.1392 92.928C74.6272 91.872 74.3712 90.656 74.3712 89.28ZM84.4032 89.304C84.4032 88.28 84.1152 87.472 83.5392 86.88C82.9792 86.288 82.2912 85.992 81.4752 85.992C80.6592 85.992 79.9632 86.288 79.3872 86.88C78.8272 87.456 78.5472 88.256 78.5472 89.28C78.5472 90.304 78.8272 91.12 79.3872 91.728C79.9632 92.32 80.6592 92.616 81.4752 92.616C82.2912 92.616 82.9792 92.32 83.5392 91.728C84.1152 91.136 84.4032 90.328 84.4032 89.304ZM96.5643 82.416C97.5083 82.416 98.3323 82.608 99.0363 82.992C99.7563 83.376 100.308 83.88 100.692 84.504V82.608H104.796V95.976C104.796 97.208 104.548 98.32 104.052 99.312C103.572 100.32 102.828 101.12 101.82 101.712C100.828 102.304 99.5883 102.6 98.1003 102.6C96.1163 102.6 94.5083 102.128 93.2763 101.184C92.0443 100.256 91.3403 98.992 91.1643 97.392H95.2203C95.3483 97.904 95.6523 98.304 96.1323 98.592C96.6123 98.896 97.2043 99.048 97.9083 99.048C98.7563 99.048 99.4283 98.8 99.9243 98.304C100.436 97.824 100.692 97.048 100.692 95.976V94.08C100.292 94.704 99.7403 95.216 99.0363 95.616C98.3323 96 97.5083 96.192 96.5643 96.192C95.4603 96.192 94.4603 95.912 93.5643 95.352C92.6683 94.776 91.9563 93.968 91.4283 92.928C90.9163 91.872 90.6603 90.656 90.6603 89.28C90.6603 87.904 90.9163 86.696 91.4283 85.656C91.9563 84.616 92.6683 83.816 93.5643 83.256C94.4603 82.696 95.4603 82.416 96.5643 82.416ZM100.692 89.304C100.692 88.28 100.404 87.472 99.8283 86.88C99.2683 86.288 98.5803 85.992 97.7643 85.992C96.9483 85.992 96.2523 86.288 95.6763 86.88C95.1163 87.456 94.8363 88.256 94.8363 89.28C94.8363 90.304 95.1163 91.12 95.6763 91.728C96.2523 92.32 96.9483 92.616 97.7643 92.616C98.5803 92.616 99.2683 92.32 99.8283 91.728C100.404 91.136 100.692 90.328 100.692 89.304ZM120.389 89.088C120.389 89.472 120.365 89.872 120.317 90.288H111.029C111.093 91.12 111.357 91.76 111.821 92.208C112.301 92.64 112.885 92.856 113.573 92.856C114.597 92.856 115.309 92.424 115.709 91.56H120.077C119.853 92.44 119.445 93.232 118.853 93.936C118.277 94.64 117.549 95.192 116.669 95.592C115.789 95.992 114.805 96.192 113.717 96.192C112.405 96.192 111.237 95.912 110.213 95.352C109.189 94.792 108.389 93.992 107.813 92.952C107.237 91.912 106.949 90.696 106.949 89.304C106.949 87.912 107.229 86.696 107.789 85.656C108.365 84.616 109.165 83.816 110.189 83.256C111.213 82.696 112.389 82.416 113.717 82.416C115.013 82.416 116.165 82.688 117.173 83.232C118.181 83.776 118.965 84.552 119.525 85.56C120.101 86.568 120.389 87.744 120.389 89.088ZM116.189 88.008C116.189 87.304 115.949 86.744 115.469 86.328C114.989 85.912 114.389 85.704 113.669 85.704C112.981 85.704 112.397 85.904 111.917 86.304C111.453 86.704 111.165 87.272 111.053 88.008H116.189Z" fill="white"/>
</svg>
