<svg width="130" height="118" viewBox="0 0 130 118" fill="none" xmlns="http://www.w3.org/2000/svg">
<rect x="2.5" y="2.5" width="124.995" height="113" fill="white" stroke="#86D3E4" stroke-width="5"/>
<line y1="-1.5" x2="126.704" y2="-1.5" transform="matrix(0.999999 -0.00149502 0.00123952 0.999999 3.29614 35.1859)" stroke="#86D3E4" stroke-width="3"/>
<ellipse cx="14.9229" cy="17.1173" rx="6.30079" ry="6.91975" fill="white"/>
<path d="M20.2236 17.1173C20.2236 20.4769 17.7643 23.037 14.9229 23.037C12.0814 23.037 9.62207 20.4769 9.62207 17.1173C9.62207 13.7576 12.0814 11.1975 14.9229 11.1975C17.7643 11.1975 20.2236 13.7576 20.2236 17.1173Z" stroke="#FF0101" stroke-opacity="0.33" stroke-width="2"/>
<ellipse cx="30.8407" cy="17.1173" rx="6.30079" ry="6.91975" fill="white"/>
<path d="M36.1415 17.1173C36.1415 20.4769 33.6821 23.037 30.8407 23.037C27.9993 23.037 25.5399 20.4769 25.5399 17.1173C25.5399 13.7576 27.9993 11.1975 30.8407 11.1975C33.6821 11.1975 36.1415 13.7576 36.1415 17.1173Z" stroke="#FAFF0E" stroke-opacity="0.33" stroke-width="2"/>
<ellipse cx="46.7584" cy="17.1173" rx="6.30079" ry="6.91975" fill="white"/>
<path d="M52.0592 17.1173C52.0592 20.4769 49.5999 23.037 46.7584 23.037C43.917 23.037 41.4576 20.4769 41.4576 17.1173C41.4576 13.7576 43.917 11.1975 46.7584 11.1975C49.5999 11.1975 52.0592 13.7576 52.0592 17.1173Z" stroke="#70FF00" stroke-opacity="0.65" stroke-width="2"/>
<line y1="-0.5" x2="8.67265" y2="-0.5" transform="matrix(0.688275 -0.72545 0.688275 0.72545 11.9384 20.2729)" stroke="#FFABAB"/>
<line y1="-0.5" x2="9.14181" y2="-0.5" transform="matrix(0.725503 0.688219 -0.64936 0.760481 11.2751 13.9813)" stroke="#FFABAB"/>
<line x1="27.1929" y1="16.9815" x2="34.4885" y2="16.9815" stroke="#FDFFAF"/>
<line y1="-0.5" x2="3.92279" y2="-0.5" transform="matrix(0.847846 -0.530243 0.490556 0.871409 44.4371 15.3623)" stroke="#A2FF59"/>
<line y1="-0.5" x2="3.5007" y2="-0.5" transform="matrix(0.57596 0.817478 -0.787462 0.616364 47.0901 13.2822)" stroke="#A2FF59"/>
<path d="M44.1982 17.5997L45.1003 19.2242L46.0024 20.8488" stroke="#A2FF59"/>
<line y1="-0.5" x2="2.99883" y2="-0.5" transform="matrix(0.884666 -0.466224 0.428598 0.903495 45.7637 20.9719)" stroke="#A2FF59"/>
<line y1="-1.5" x2="7.8809" y2="-1.5" transform="matrix(-0.673264 0.739402 -0.673264 -0.739402 23.2134 53.1728)" stroke="#86D3E4" stroke-width="3"/>
<line y1="-1.5" x2="7.42692" y2="-1.5" transform="matrix(-0.681012 -0.732272 0.665456 -0.746437 24.2919 62.9817)" stroke="#86D3E4" stroke-width="3"/>
<line y1="-1.5" x2="10.6141" y2="-1.5" transform="matrix(0.999652 -0.0263879 0.0218807 0.999761 26.5297 60.0085)" stroke="#86D3E4" stroke-width="3"/>
<line y1="-1.5" x2="7.85037" y2="-1.5" transform="matrix(0.760367 0.649493 -0.577948 0.816073 39.1312 53.9012)" stroke="#86D3E4" stroke-width="3"/>
<line y1="-1.5" x2="8.03305" y2="-1.5" transform="matrix(-0.577948 0.816073 -0.760367 -0.649493 45.1003 56.0864)" stroke="#86D3E4" stroke-width="3"/>
<rect x="66.9873" y="64.0988" width="1.32648" height="32.7778" fill="#86D3E4"/>
<rect x="69.4873" y="66.5988" width="19.5399" height="5.19753" fill="#86D3E4" stroke="#86D3E4" stroke-width="5"/>
<line x1="92.5272" y1="64.0988" x2="92.5272" y2="96.8765" stroke="#86D3E4" stroke-width="2"/>
<line x1="66.9873" y1="95.3765" x2="91.5272" y2="95.3765" stroke="#86D3E4" stroke-width="3"/>
<line y1="-0.5" x2="7.32573" y2="-0.5" transform="matrix(-1 -4.42558e-05 3.66926e-05 -1 77.6144 79.7594)" stroke="#86D3E4"/>
<line y1="-0.5" x2="7.32584" y2="-0.5" transform="matrix(0.999917 -0.0128707 0.0106714 0.999943 80.9154 79.4894)" stroke="#86D3E4"/>
<ellipse rx="7.31436" ry="2.54395" transform="matrix(-0.984936 0.172919 -0.144042 -0.989572 80.2521 87.0432)" fill="#86D3E4"/>
</svg>
