<svg width="139" height="117" viewBox="0 0 139 117" fill="none" xmlns="http://www.w3.org/2000/svg">
<rect x="2.5" y="2.5" width="134" height="112" fill="white" stroke="#86D3E4" stroke-width="5"/>
<line y1="-1.5" x2="132.989" y2="-1.5" transform="matrix(1 -0.000370697 0.000401203 1 2.25403 35.3889)" stroke="#86D3E4" stroke-width="3"/>
<ellipse cx="18.4081" cy="16.9722" rx="7.13784" ry="6.86111" fill="white"/>
<path d="M24.5459 16.9722C24.5459 20.1723 21.8356 22.8333 18.4081 22.8333C14.9806 22.8333 12.2703 20.1723 12.2703 16.9722C12.2703 13.7721 14.9806 11.1111 18.4081 11.1111C21.8356 11.1111 24.5459 13.7721 24.5459 16.9722Z" stroke="#FF0101" stroke-opacity="0.33" stroke-width="2"/>
<ellipse cx="36.4406" cy="16.9722" rx="7.13784" ry="6.86111" fill="white"/>
<path d="M42.5784 16.9722C42.5784 20.1723 39.868 22.8333 36.4406 22.8333C33.0131 22.8333 30.3027 20.1723 30.3027 16.9722C30.3027 13.7721 33.0131 11.1111 36.4406 11.1111C39.868 11.1111 42.5784 13.7721 42.5784 16.9722Z" stroke="#FAFF0E" stroke-opacity="0.33" stroke-width="2"/>
<ellipse cx="54.4729" cy="16.9722" rx="7.13784" ry="6.86111" fill="white"/>
<path d="M60.6108 16.9722C60.6108 20.1723 57.9004 22.8333 54.4729 22.8333C51.0455 22.8333 48.3351 20.1723 48.3351 16.9722C48.3351 13.7721 51.0455 11.1111 54.4729 11.1111C57.9004 11.1111 60.6108 13.7721 60.6108 16.9722Z" stroke="#70FF00" stroke-opacity="0.65" stroke-width="2"/>
<path d="M121.406 47.827C121.766 46.8197 121.189 45.6927 120.116 45.3096L102.646 39.068C101.574 38.685 100.413 39.1911 100.053 40.1984C99.6935 41.2056 100.271 42.3327 101.343 42.7157L116.872 48.2638L111.659 62.8546C111.299 63.8618 111.877 64.9889 112.949 65.3719C114.021 65.7549 115.182 65.2489 115.542 64.2416L121.406 47.827ZM15.4038 94.6773L120.377 48.9135L118.553 45.3534L13.5801 91.1173L15.4038 94.6773Z" fill="#86D3E4"/>
<line y1="-0.5" x2="9.20014" y2="-0.5" transform="matrix(0.735006 -0.678061 0.735006 0.678061 15.027 20.101)" stroke="#FFABAB"/>
<line y1="-0.5" x2="9.76569" y2="-0.5" transform="matrix(0.769379 0.638793 -0.698315 0.715791 14.2756 13.8628)" stroke="#FFABAB"/>
<line x1="32.3081" y1="16.8333" x2="40.573" y2="16.8333" stroke="#FDFFAF"/>
<line y1="-0.5" x2="4.29529" y2="-0.5" transform="matrix(0.877184 -0.480154 0.540952 0.841054 51.8433 15.2321)" stroke="#A2FF59"/>
<line y1="-0.5" x2="3.64261" y2="-0.5" transform="matrix(0.627057 0.778973 -0.824974 0.565171 54.8486 13.1696)" stroke="#A2FF59"/>
<path d="M51.5726 17.4506L52.5945 19.0613L53.6164 20.6721" stroke="#A2FF59"/>
<line y1="-0.5" x2="3.30972" y2="-0.5" transform="matrix(0.908055 -0.418851 0.476504 0.879172 53.3459 20.7942)" stroke="#A2FF59"/>
</svg>
