<svg width="184" height="208" viewBox="0 0 184 208" fill="none" xmlns="http://www.w3.org/2000/svg">
<path d="M97.9664 55.1425L98.4925 58.3711L100.596 55.8657L130.859 19.8145L113.551 62.9434L112.29 66.086L115.465 64.9085L160.236 48.3041L122.971 77.214L120.203 79.3609L123.667 79.8824L170.928 87L123.667 94.1176L120.203 94.6391L122.971 96.786L160.236 125.696L115.465 109.091L112.29 107.914L113.551 111.057L130.859 154.185L100.596 118.134L98.4925 115.629L97.9664 118.857L90.5 164.674L83.0336 118.857L82.5075 115.629L80.4043 118.134L50.1405 154.185L67.4489 111.057L68.71 107.914L65.5352 109.091L20.7643 125.696L58.0294 96.786L60.7967 94.6391L57.3333 94.1176L10.0724 87L57.3333 79.8824L60.7967 79.3609L58.0294 77.214L20.7643 48.3041L65.5352 64.9085L68.71 66.086L67.4489 62.9434L50.1405 19.8145L80.4043 55.8657L82.5075 58.3711L83.0336 55.1425L90.5 9.32599L97.9664 55.1425Z" fill="#B9F0FC" fill-opacity="0.92" stroke="#86D3E4" stroke-width="3"/>
<line x1="69.1942" y1="106.908" x2="12.1942" y2="181.908" stroke="#86D3E4" stroke-width="3"/>
<path d="M11.2501 180.567L56.2501 206.567" stroke="#86D3E4" stroke-width="3"/>
<line x1="55.5589" y1="205.584" x2="81.5589" y2="115.584" stroke="#86D3E4" stroke-width="3"/>
<circle cx="44.5" cy="171.5" r="5" fill="#BFF1FC" stroke="#86D3E4" stroke-width="3"/>
<circle cx="89.5" cy="86.5" r="5" fill="#BFF1FC" stroke="#86D3E4" stroke-width="3"/>
<circle cx="147.5" cy="164.5" r="5" fill="#BFF1FC" stroke="#86D3E4" stroke-width="3"/>
<line x1="101.301" y1="119.254" x2="148.301" y2="201.254" stroke="#86D3E4" stroke-width="3"/>
<line x1="146.955" y1="200.924" x2="180.955" y2="167.924" stroke="#86D3E4" stroke-width="3"/>
<line x1="113.965" y1="109.851" x2="182.9" y2="167.756" stroke="#86D3E4" stroke-width="3"/>
</svg>
